<svg xmlns="http://www.w3.org/2000/svg"
    xmlns:xlink="http://www.w3.org/1999/xlink" x="0px" y="0px" viewBox="0 0 919.5 250" aria-labelledby="hakTitle hakDesc" style="enable-background:new 0 0 919.5 250;" xml:space="preserve" fill="#4d6480">
    <path d="M349,213.8c-2.9,0.8-6.1,1.3-9.1,1.3c-10.6,0-16.9-8.3-16.9-22.3c0-13.6,7-22.3,17.9-22.3 c7.4,0,11.2,2.1,13.7,3.9l1.1,0.8v-4.7l-0.3-0.2c-2.6-1.4-6.8-3.2-14.4-3.2c-15.9,0-27.4,10.8-27.4,25.7c0,15.4,10.5,25.7,26.1,25.7 c7.5,0,15.1-2.2,17.9-4.2l0.3-0.2v-18.8H349V213.8z"></path>
    <path d="M415,208.6c-0.7-1-1.6-2.5-2.7-4.2c-1.9-3-4.1-6.4-5.5-8.4c-0.5-0.7-1.4-1.6-2.3-2.2 c6.6-1.4,11-6.3,11-12.4c0-4.1-1.1-7.4-3.4-9.7c-2.7-2.7-6.8-4.1-12.3-4.1h-19.3v50.1h9.2v-23.2h6.6l14,23.2H421 c0,0-2.6-3.8-4.1-6.2C416.3,210.7,415.7,209.7,415,208.6z M396.8,191.2h-7v-20.1h7.3c7.2,0,9.4,2.4,9.4,10.2 C406.4,188.1,403.4,191.2,396.8,191.2z"></path>
    <path d="M461.2,167c-14.9,0-25.3,10.6-25.3,25.7c0,15.2,10.4,25.7,25.3,25.7 c14.9,0,25.3-10.6,25.3-25.7C486.5,177.6,476.1,167,461.2,167z M461.2,215.1c-13.7,0-15.7-14-15.7-22.3c0-14.8,5.3-22.3,15.7-22.3 c7.2,0,15.8,3.9,15.8,22.3C477,203,474.2,215.1,461.2,215.1z"></path>
    <path d="M543.7,201.4c0,10.9-7.6,13.2-14,13.2c-8.7,0-13.1-4.3-13.1-12.9v-34h-9.2v33.8c0,10.7,7.6,17,20.4,17 c12.4,0,19.9-6.4,19.9-17v-33.8h-4V201.4z"></path>
    <path d="M589,167.7h-19v50.1h9.3v-21.4h9.6c10.7,0,17.1-5.4,17.1-14.4 C606,173.2,599.5,167.7,589,167.7z M586.8,193.1h-7.5v-21.9h7.5c7.4,0,10.3,3.1,10.3,11C597,189.7,593.9,193.1,586.8,193.1z"></path>
    <path d="M648.8,44.4c-14.5-5.6-20.9-10-20.9-21.4c0-10.1,8.2-16.6,21-16.6c9.9,0,17.4,2.2,25.1,7.3l1.5,1V13V6.6V6 l-0.5-0.3c-6.5-3.9-15-5.8-26.2-5.8c-20.9,0-36.1,12.9-36.1,30.6c0,20.3,12.5,26.7,30.1,33.7c20.2,7.9,24,14.2,24,23.2 c0,11.6-8.8,18-24.7,18c-10.1,0-20.4-3.4-28.4-9.3l-1.5-1.1v1.9v6.8v0.5l0.4,0.3c7.5,4.8,18,7.4,29.4,7.4c24.7,0,40-12.6,40-33 C682.2,58.6,669,52,648.8,44.4z"></path>
    <polygon points="279.2,1.5 259.8,1.5 259.8,57.9 279.2,36.4 "></polygon>
    <polygon points="348.1,110.5 299.7,45.6 339.7,1.5 329.6,1.5 259.8,79 259.8,110.5 279.2,110.5 279.2,68.1 286.9,59.6 325.2,110.5 "></polygon>
    <polygon points="401.6,1.5 382.2,1.5 382.2,57.9 401.6,36.4 "></polygon>
    <polygon points="383.2,110.5 402.6,110.5 402.6,68.1 410.4,59.6 448.7,110.5 471.5,110.5 423.2,45.6 463.2,1.5 453,1.5 383.2,79 "></polygon>
    <rect x="71.8" y="1.5" width="19.3" height="109"></rect>
    <polygon points="19.4,1.5 0,1.5 0,110.5 19.4,110.5 19.4,57.1 53.1,57.1 53.1,50.7 19.4,50.7 "></polygon>
    <polygon points="171.4,1.5 127.5,110.5 136.1,110.5 150,75.3 170.9,75.3 168.4,68.8 152.5,68.8 170.1,24.3 203.6,110.5 224.5,110.5 181.3,1.5 "></polygon>
    <polygon points="745.7,1.5 701.7,110.5 710.3,110.5 724.3,75.3 745.2,75.3 742.7,68.8 726.8,68.8 744.4,24.3 777.9,110.5 798.8,110.5 755.6,1.5 "></polygon>
    <polygon points="543.7,1.5 533.8,1.5 489.8,110.5 498.4,110.5 512.4,75.3 533.3,75.3 530.8,68.8 514.9,68.8 532.5,24.3 566,110.5 586.9,110.5 "></polygon>
    <polygon points="911.5,1.5 911.5,86.5 855.1,1.5 833.9,1.5 833.9,4.9 903.4,110.5 919.5,110.5 919.5,1.5 "></polygon>
    <polygon points="833.9,110.5 842.1,110.5 842.1,44.9 833.9,32.5 "></polygon>
</svg>