<svg width="534" height="320" viewBox="0 0 534 320" fill="none" xmlns="http://www.w3.org/2000/svg">
<path fill-rule="evenodd" clip-rule="evenodd" d="M195.778 169.331C195.03 167.916 193.969 166.495 192.365 155.935L209.425 165.653L229.379 163.29L270.321 64.3335L274.005 69.8405L246.707 174.05L217.569 174.575V173.266C217.569 173.266 209.696 174.575 207.596 174.319C205.493 174.053 198.137 173.791 195.778 169.331V169.331Z" fill="white"/>
<path fill-rule="evenodd" clip-rule="evenodd" d="M219.138 154.89C219.138 154.89 217.823 154.365 215.725 150.162C213.625 145.962 213.731 131.415 222.819 122.336C224.653 120.501 231.479 114.464 232.004 126.536L236.204 123.649L228.326 110.263L208.909 126.014L206.281 154.102L219.138 154.89V154.89ZM282.4 174.318L277.937 169.062L285.019 166.7L301.822 168.015L326.761 70.8901L340.933 71.4209L347.761 79.0336L346.977 86.6406C346.977 86.6406 344.346 81.3933 340.674 79.2932C337.001 77.1932 331.751 77.4528 331.751 77.4528L307.081 174.318H282.4V174.318ZM289.49 87.4338L286.603 81.653L289.747 79.8183L303.4 79.0336L302.091 85.8531L295.519 87.6935L289.49 87.4338Z" fill="white"/>
<path fill-rule="evenodd" clip-rule="evenodd" d="M343.558 60.1357C343.558 60.1357 360.362 64.8552 365.087 69.5832C369.812 74.3083 371.647 83.2364 371.647 90.0559C371.647 96.8811 365.087 115.254 345.13 122.339C345.13 122.339 349.071 134.152 349.071 142.82C349.071 151.477 346.714 160.405 346.714 160.405C346.714 160.405 345.404 171.165 349.071 173.006C352.749 174.84 355.111 174.053 355.111 174.053L344.874 180.881L332.804 164.34L333.061 116.835L355.899 98.7216V75.3555L343.558 60.1357V60.1357Z" fill="white"/>
<path fill-rule="evenodd" clip-rule="evenodd" d="M355.634 173.005L359.831 174.84L362.718 178.518L365.087 190.588C365.087 190.588 352.218 202.403 341.986 201.873C331.748 201.348 332.273 201.094 329.916 198.991C327.548 196.891 323.613 194.788 322.823 188.491C322.038 182.188 354.846 184.034 354.846 184.034L355.634 173.005ZM362.718 168.018C362.718 168.018 365.344 174.053 367.181 175.105C369.016 176.147 375.056 177.2 376.9 176.94C378.729 176.678 394.739 176.895 408.398 153.839C416.795 139.667 416.01 126.019 414.695 122.082C414.181 120.555 412.666 104.009 396.054 102.924C396.054 102.924 408.917 120.241 404.714 135.738C400.517 151.223 372.697 167.498 372.697 167.498L362.718 168.018V168.018Z" fill="white"/>
<path fill-rule="evenodd" clip-rule="evenodd" d="M379.519 156.99C379.519 156.99 375.316 156.99 374.012 155.418C372.697 153.837 371.912 145.705 374.012 140.192C376.106 134.677 380.66 121.238 387.654 120.239C391.326 119.72 393.426 128.382 393.426 128.382L395.01 118.407L385.813 112.107L370.594 124.707L361.666 158.565C361.671 158.565 375.056 162.237 379.519 156.99ZM418.633 170.375C418.633 170.375 412.335 157.778 413.645 150.693C414.96 143.605 425.198 160.405 425.198 160.405L430.186 169.853L450.131 165.133L455.643 149.643L459.846 152.796L455.121 169.856C455.121 169.856 444.884 177.999 434.646 176.427C424.411 174.838 420.727 173.791 418.633 170.375V170.375Z" fill="white"/>
<path fill-rule="evenodd" clip-rule="evenodd" d="M449.611 154.889C449.611 154.889 440.94 158.302 438.583 152.262C436.215 146.232 435.082 138.294 441.999 127.332C446.456 120.238 451.184 122.079 452.231 122.339C453.284 122.607 462.731 135.204 462.731 135.204L465.094 132.579L469.297 114.732L465.356 109.738L446.986 103.966L421.517 144.652L428.083 165.918L449.611 154.889V154.889ZM459.059 170.375L461.153 175.105H480.313L492.129 133.104C492.129 133.104 495.205 122.339 507.092 122.339C509.711 122.339 511.812 124.707 512.08 126.019L511.812 117.094L498.692 113.941L479.526 133.107L459.059 170.375V170.375ZM501.311 196.628C501.311 196.628 501.842 201.873 504.727 203.188C507.611 204.503 514.439 204.503 514.439 204.503L524.94 200.035L532.29 193.481L528.612 180.618L526.777 179.303L522.574 178.778L517.062 185.075L501.311 196.628V196.628Z" fill="white"/>
<path fill-rule="evenodd" clip-rule="evenodd" d="M522.577 178.778L517.595 178.248L514.442 176.147L513.912 173.791L513.655 162.237L510.767 154.365L509.189 149.637L518.902 142.549L527.3 131.789L530.709 118.661L529.662 114.461C529.662 114.461 527.3 105.016 516.805 103.701C506.299 102.388 512.337 105.798 512.337 105.798L516.277 129.686L498.952 146.747L506.302 186.388L519.165 185.073L522.577 178.778ZM148.266 174.318L144.594 168.8L147.739 166.437L163.224 166.7L174.249 122.076C174.249 122.076 187.637 113.676 190.79 115.248C193.934 116.832 198.134 101.863 198.134 101.863L199.447 101.079L203.647 104.751L199.447 120.236L198.403 125.489C198.403 125.489 193.15 122.864 190.002 123.129C186.849 123.389 182.649 124.433 182.649 124.433L168.736 173.263L148.266 174.318V174.318Z" fill="white"/>
<path fill-rule="evenodd" clip-rule="evenodd" d="M141.182 171.95L146.954 167.493L151.679 144.92L144.594 147.537L155.62 103.963L151.154 99.5063L134.879 155.149L115.196 159.35L83.9548 160.134L84.7424 169.062C84.7424 169.062 90.255 175.36 99.4428 175.36C108.628 175.36 114.14 170.372 114.14 170.372C114.14 170.372 122.021 175.103 127.266 175.103C132.522 175.106 141.182 171.95 141.182 171.95V171.95Z" fill="white"/>
<path fill-rule="evenodd" clip-rule="evenodd" d="M113.353 152.533C113.353 152.533 106.796 150.693 105.74 146.752C104.696 142.823 104.296 122.296 116.768 117.095C119.921 115.782 123.856 121.035 123.856 121.035L122.281 111.322L105.74 110.269L94.7234 145.443L109.156 159.353L113.353 152.533V152.533ZM46.9412 173.266L41.1689 167.75L64.2696 166.44L94.983 55.936L99.4428 60.6555L68.9976 172.738L46.9412 173.266V173.266ZM0.48584 167.75L5.47064 172.738L28.0435 173.006L43.0121 119.452L56.6569 119.979L57.7126 113.151L36.9688 112.632L0.48584 167.75Z" fill="white"/>
<path fill-rule="evenodd" clip-rule="evenodd" d="M41.1689 167.75L46.9412 173.266L68.9976 172.738L99.4428 60.6555L94.983 55.936L41.1689 167.75ZM48.5248 98.9816L58.4973 60.3958L54.0289 56.1957L42.2246 79.2935L38.2841 107.119L48.5248 98.9816ZM24.6309 82.9658L13.8737 84.0215L10.9861 79.0339L15.4431 76.6656L26.2116 74.5655L24.6309 82.9658V82.9658ZM502.678 66.0454L507.931 70.7649L498.481 108.572L490.605 111.191L502.678 66.0454Z" fill="white"/>
<path fill-rule="evenodd" clip-rule="evenodd" d="M241.38 254.603L257.752 207.406H271.605L287.344 254.603H274.75L270.504 243.155H258.54L254.919 254.603H241.38ZM262.181 231.893H266.929L264.555 224.554L262.181 231.893V231.893Z" fill="#4D6480"/>
<path fill-rule="evenodd" clip-rule="evenodd" d="M71.072 55.9185L59.8469 97.7885H43.3203L54.5482 55.9185H33.7702C33.7702 55.9185 31.2507 59.5251 25.8978 63.5997C21.301 67.1064 13.9394 67.0522 13.9394 67.0522L10.4726 79.2845C10.4726 79.2845 12.5184 79.9122 14.413 79.9122C22.1256 79.9122 24.0117 77.5582 24.0117 77.5582L0.0892334 168.038H24.4854L38.695 115.037H55.2216L41.012 168.038H65.7219L95.7848 55.9185H71.072V55.9185Z" fill="#4D6480"/>
<path fill-rule="evenodd" clip-rule="evenodd" d="M13.2089 85.6564L13.7425 83.0056C13.7425 83.0056 16.5359 83.3166 19.609 82.6547C22.6763 81.9898 23.5038 81.3021 23.5038 81.3021L22.4566 84.515C22.4538 84.5179 19.1325 85.7933 13.2089 85.6564ZM57.1305 59.9819H59.4817L50.1113 95.1609H47.6916L57.1305 59.9819V59.9819ZM98.2815 60.3101H100.664L70.1332 174.318H46.6016L47.3863 171.568H68.5553L98.2815 60.3101ZM5.32512 171.545L4.49194 174.318H28.8909L43.423 120.841H51.3496L51.9688 118.176H41.5284L27.3187 171.545H5.32512Z" fill="#4D6480"/>
<path fill-rule="evenodd" clip-rule="evenodd" d="M117.251 113.419C123.123 113.419 123.014 121.469 123.014 124.294C123.014 141.137 113.319 153.249 107.698 153.249C104.336 153.249 100.245 150.111 100.245 140.595C100.242 129.738 107.789 113.419 117.251 113.419ZM81.0472 146.033C81.0472 159.022 87.8525 170.078 99.1974 170.078C108.009 170.078 114.837 164.015 114.837 164.015C114.837 164.015 118.609 170.295 127.428 170.295C136.24 170.295 142.64 164.857 142.64 164.857L146.312 149.797C143.693 151.891 140.859 152.83 139.598 152.83C139.073 152.83 137.498 152.721 137.812 151.577C138.126 150.422 151.451 99.3011 151.451 99.3011H130.045L128.162 105.051C127.528 103.487 122.076 98.7817 115.667 98.7817C97.0745 98.7817 81.0472 124.017 81.0472 146.033V146.033Z" fill="#4D6480"/>
<path fill-rule="evenodd" clip-rule="evenodd" d="M106.214 140.957C106.214 129.975 113.207 118.187 118.401 117.911C119.265 117.871 119.453 118.302 119.453 118.302C120.404 117.508 119.271 116.142 116.925 116.142C111.741 116.142 103.395 130.497 103.395 141.334C103.395 149.511 107.578 150.442 107.578 150.442C107.952 150.442 108.371 149.725 107.852 148.838C106.902 147.217 106.214 145.231 106.214 140.957ZM153.762 104.112H156.284L144.945 147.391L141.906 149.063L153.762 104.112V104.112ZM142.066 168.98L141.433 172.592C141.433 172.592 134.271 176.359 126.641 176.359C118.532 176.359 113.966 171.967 113.966 171.967C113.966 171.967 107.355 176.359 98.9379 176.359C90.5148 176.359 85.2389 171.565 84.6882 168.98L85.7126 167.647C85.7126 167.647 89.8813 173.845 99.0919 173.845C108.3 173.845 114.437 168.349 114.437 168.349C114.437 168.349 118.295 173.765 127.503 173.765C136.713 173.768 142.066 168.98 142.066 168.98V168.98Z" fill="#4D6480"/>
<path fill-rule="evenodd" clip-rule="evenodd" d="M144.32 169.031L162.47 99.9341H183.249L181.571 105.783C181.571 105.783 189.129 100.031 196.477 100.031C198.891 100.031 200.043 100.97 200.043 100.97L195.421 119.268C195.421 119.268 191.124 117.496 189.129 117.496C187.135 117.496 178.529 118.857 175.385 129.732C172.232 140.597 164.884 169.048 164.884 169.048L144.32 169.031V169.031Z" fill="#4D6480"/>
<path fill-rule="evenodd" clip-rule="evenodd" d="M147.57 175L148.52 172.17H167.823C167.823 172.17 176.957 137.673 178.635 130.771C180.307 123.874 186.296 120.944 189.235 120.944C192.168 120.944 193.64 122.83 192.802 123.66C192.802 123.66 190.91 123.455 189.552 123.455C188.185 123.455 184.929 124.607 183.779 126.174C182.627 127.74 181.365 130.146 180.632 133.598C179.899 137.051 169.615 175.009 169.615 175.009L147.57 175V175ZM199.093 115.511C199.093 115.511 200.879 112.686 202.346 111.222L204.241 104.531H202.035L199.093 115.511Z" fill="#4D6480"/>
<path fill-rule="evenodd" clip-rule="evenodd" d="M237.502 105.578L248.413 64.1733H270.872L242.855 169.248H220.819L221.657 165.062C221.657 165.062 215.152 169.659 207.913 169.659C195.29 169.659 191.329 158.479 191.329 147.811C191.329 125.811 208.013 100.448 225.538 100.448C232.774 100.451 237.502 105.578 237.502 105.578V105.578ZM227.949 141.956C229.102 139.465 232.149 126.376 232.569 124.499C232.988 122.621 232.774 114.566 227.324 114.566C219.03 114.566 209.377 130.748 209.377 145.203C209.377 150.219 212.005 154.091 214.935 154.091C217.88 154.091 223.758 151.052 227.949 141.956Z" fill="#4D6480"/>
<path fill-rule="evenodd" clip-rule="evenodd" d="M216.199 151.683C216.841 151.683 216.199 150.735 215.991 149.591C215.78 148.435 215.357 145.828 215.357 144.361C215.357 133.136 223.712 119.796 227.744 119.796C229.421 119.796 229.316 120.264 229.684 120.216C230.177 120.15 230.209 117.865 227.475 117.865C220.839 117.865 212.946 133.983 212.946 145.254C212.946 148.384 213.631 151.683 216.199 151.683V151.683Z" fill="#4D6480"/>
<path fill-rule="evenodd" clip-rule="evenodd" d="M195.526 168.201C195.877 167.89 199.826 173.217 207.913 173.217C215.991 173.217 218.824 170.392 218.824 170.392V172.695H245.369L272.65 69.4092H275.063L247.155 175.628H216.83V174.267C216.83 174.267 213.677 175.833 207.699 175.833C200.985 175.831 193.74 169.767 195.526 168.201Z" fill="#4D6480"/>
<path fill-rule="evenodd" clip-rule="evenodd" d="M277.897 169.3L301.354 81.1655C301.354 81.1655 295.688 83.0544 292.694 83.0544C289.701 83.0544 286.397 81.7932 286.397 81.7932L290.024 68.3083C290.024 68.3083 296.789 69.4068 302.139 65.9543C307.495 62.5017 312.688 58.7381 312.688 58.7381C312.688 58.7381 320.238 58.5869 336.134 58.5869C347.787 58.5869 366.511 68.4681 366.511 86.9692C366.511 103.747 353.291 117.24 339.281 119.429C337.854 119.651 337.555 120.054 338.496 120.993C339.444 121.943 344.32 128.682 344.32 143.26C344.32 157.846 341.49 160.36 342.274 166.318C343.059 172.281 343.846 175.569 348.888 175.569C352.344 175.569 355.965 172.744 355.965 172.744L360.216 188.431C360.216 188.431 353.128 196.735 338.494 196.735C323.853 196.735 317.713 186.702 317.713 174.47C317.713 162.238 323.853 159.732 323.853 136.677C323.853 128.209 322.269 124.496 319.995 122.802C319.059 122.091 319.059 121.78 319.293 120.602C319.533 119.426 322.204 109.471 322.443 108.532C322.677 107.585 323.385 107.117 324.566 107.117C331.466 107.117 346.44 98.491 346.44 85.7908C346.44 77.322 340.46 72.6939 333.149 72.6939C331.255 72.6939 328.184 73.2446 328.184 73.2446L302.61 169.297H277.897V169.3V169.3Z" fill="#4D6480"/>
<path fill-rule="evenodd" clip-rule="evenodd" d="M300.881 84.8744C300.881 84.8744 297.631 86.341 293.005 86.341C291.328 86.341 289.55 86.2354 289.55 86.2354L288.708 88.7464C288.708 88.7464 292.486 89.1601 295.842 88.7464C299.197 88.3269 300.567 87.1742 300.567 87.1742L300.881 84.8744V84.8744ZM323.759 104.426L331.203 76.6196C331.203 76.6196 336.665 76.3001 338.765 77.4528C340.859 78.6084 342.326 79.8582 341.384 80.7969C340.442 81.7357 340.753 80.3775 338.548 79.5443C336.351 78.7054 334.565 78.3944 333.409 78.3944L326.689 103.903L323.759 104.426ZM318.189 125.018C318.189 125.018 320.709 125.857 320.084 128.265L307.595 175.52L281.986 175.408L282.728 172.906H305.392L318.189 125.018V125.018ZM329.842 198.729C329.842 198.729 334.251 200.501 339.806 200.501C350.891 200.501 360.938 194.42 363.948 189.735L360.059 174.684L363.212 177.297L366.568 190.677C366.568 190.677 357.126 202.798 342.115 202.798C335.298 202.798 330.162 200.401 329.842 198.729ZM362.684 67.2064C363.187 67.4832 372.705 73.4809 372.705 87.5965C372.705 107.81 354.709 119.905 346.212 123.349C346.212 123.349 349.884 129.207 349.884 141.958C349.884 151.894 347.576 160.879 347.576 164.959C347.576 170.298 350.406 172.384 349.042 172.906C347.681 173.425 345.37 169.034 345.37 164.329C345.37 159.624 347.79 152.313 347.79 142.483C347.79 127.218 342.751 122.83 342.751 121.891C342.751 120.233 346.734 124.502 361.848 109.345C364.656 106.526 370.291 98.365 370.291 87.488C370.291 75.7807 362.895 68.3078 362.422 67.9397C361.954 67.5717 362.216 66.9468 362.684 67.2064V67.2064Z" fill="#4D6480"/>
<path fill-rule="evenodd" clip-rule="evenodd" d="M387.137 115.976C400.591 115.976 386.664 158.553 372.97 158.553C359.748 158.556 373.915 115.976 387.137 115.976ZM350.54 145.148C350.54 161.955 361.374 171.967 373.912 171.967C398.471 171.967 410.509 145.382 410.509 128.913C410.509 112.449 400.588 100.924 386.664 100.924C364.467 100.927 350.54 128.211 350.54 145.148Z" fill="#4D6480"/>
<path fill-rule="evenodd" clip-rule="evenodd" d="M389.551 122.302C389.551 122.302 388.915 121.363 387.979 121.363C384.546 121.363 373.707 136.274 373.707 150.324C373.707 154.502 375.807 154.716 375.701 155.343C375.59 155.968 373.912 157.121 372.759 155.657C371.607 154.188 371.293 151.052 371.293 149.28C371.293 135.022 382.817 119.377 387.979 119.377C390.176 119.374 390.071 122.827 389.551 122.302V122.302ZM365.415 173.111C365.415 173.111 366.887 178.127 375.904 178.127C396.294 178.127 410.161 155.081 410.752 151.366L410.64 145.83C405.77 159.31 391.808 175.625 376.009 175.625C370.454 175.625 365.415 173.111 365.415 173.111V173.111ZM413.999 127.532L415.782 123.454C415.782 123.454 414.689 110.161 407.596 106.625C406.754 106.206 406.338 106.939 407.174 107.875C408.015 108.814 413.26 114.672 413.999 127.532Z" fill="#4D6480"/>
<path fill-rule="evenodd" clip-rule="evenodd" d="M455.763 149.377L451.672 166.734C451.672 166.734 444.849 172.061 435.091 172.061C421.432 172.061 412.526 161.723 412.526 145.619C412.526 121.617 430.945 102.331 448.416 102.331C460.588 102.331 466.044 110.072 466.044 110.072L462.16 125.229C462.16 125.229 458.177 116.549 450.413 116.549C440.823 116.549 431.627 133.478 431.627 146.558C431.627 154.816 434.457 157.532 439.182 157.532C446.424 157.535 455.763 149.377 455.763 149.377V149.377Z" fill="#4D6480"/>
<path fill-rule="evenodd" clip-rule="evenodd" d="M468.358 113.419L470.347 114.669L464.049 138.923C464.049 138.923 456.711 125.232 452.619 123.766C445.123 121.092 437.924 135.473 437.924 144.572C437.924 150.95 440.047 153.894 441.385 154.399C442.227 154.713 440.649 155.124 439.707 155.027C438.766 154.919 435.405 153.666 435.405 145.511C435.405 134.705 443.006 120.624 450.624 120.624C457.963 120.624 463.213 133.384 463.213 133.384L468.358 113.419V113.419ZM458.705 151.891L460.588 153.249L456.074 170.92C456.074 170.92 447.052 177.714 434.874 177.714C421.526 177.714 417.671 170.675 417.671 168.826C417.671 167.99 418.093 168.463 418.456 168.983C418.824 169.508 424.642 175.463 434.979 175.463C445.948 175.463 454.291 168.72 454.291 168.72L458.705 151.891V151.891Z" fill="#4D6480"/>
<path fill-rule="evenodd" clip-rule="evenodd" d="M522.922 178.233C522.922 178.233 520.092 181.689 515.672 181.689C512.528 181.689 509.592 178.55 509.592 171.334C509.492 152 502.142 148.653 502.983 146.661C503.614 145.172 525.961 139.659 526.595 116.918C526.88 106.731 519.35 102.491 510.382 102.491C502.786 102.491 495.413 107.433 493.328 108.954L504.724 65.6401H486.137L458.591 170.389H477.172L487.047 132.859C491.059 120.407 502.918 117.283 505.18 117.283C507.494 117.283 510.642 117.908 510.642 121.571C510.642 131.033 495.79 137.148 490.491 137.148C489.755 137.148 489.239 137.773 489.13 138.509C489.025 139.234 486.816 147.289 486.611 148.122C486.394 148.961 486.394 149.375 487.136 149.794C490.106 151.489 492.586 156.902 492.586 166.107C492.586 175.309 491.327 174.995 491.327 180.43C491.327 192.346 498.578 199.668 508.647 199.668C518.717 199.668 527.217 192.243 527.217 192.243L522.922 178.233V178.233Z" fill="#4D6480"/>
<path fill-rule="evenodd" clip-rule="evenodd" d="M498.258 103.589C498.258 103.589 499.83 102.545 501.411 102.017L509.911 69.2951H507.081L498.258 103.589ZM506.861 122.932C507.597 123.001 507.914 121.985 507.172 121.263C506.442 120.53 505.394 120.63 504.764 120.63C504.133 120.63 497.319 121.988 493.853 127.112C490.391 132.234 490.811 134.329 490.811 134.329C490.811 134.329 492.589 134.748 493.225 133.281C493.855 131.815 495.008 128.371 498.469 125.857C501.93 123.346 504.767 122.718 506.861 122.932ZM529.428 113.842C529.428 113.842 531.848 116.972 532.047 119.269C532.264 121.574 531.112 131.609 526.386 137.045C521.667 142.481 518.306 146.247 510.431 149.797C510.431 149.797 515.05 156.799 515.05 167.359C515.05 173.009 514.488 176.621 517.992 177.403C518.928 177.608 518.722 178.55 517.681 178.55C516.628 178.55 513.372 178.966 512.747 174.053C512.111 169.142 513.267 162.137 510.753 156.177C508.233 150.219 507.6 149.594 507.175 149.066C506.758 148.547 506.758 148.287 507.392 148.073C508.017 147.865 519.227 143.476 525.174 133.755C531.317 123.714 530.107 115.191 529.428 113.842V113.842ZM460.697 176.41L461.433 173.847H479.797L485.672 151.686C485.672 151.686 486.982 152.573 487.561 153.88L481.526 176.413H460.697V176.41V176.41ZM131.315 96.4904C139.166 78.8441 150.224 62.8087 163.928 49.199C178.272 34.8789 195.254 23.474 213.936 15.6151C233.333 7.44307 253.937 3.30572 275.178 3.30572C296.415 3.30572 317.019 7.44307 336.413 15.6151C355.143 23.5103 371.975 34.8038 386.418 49.199C400.862 63.5941 412.215 80.3461 420.133 99.0099C421.774 102.879 423.26 106.812 424.588 110.8C425.195 110.112 425.797 109.447 426.399 108.837C418.522 85.7259 405.406 64.7502 388.076 47.5497C373.523 33.0165 356.289 21.4436 337.329 13.4722C317.647 5.17752 296.729 0.97168 275.181 0.97168C253.623 0.97168 232.708 5.17752 213.032 13.4722C194.068 21.443 176.831 33.0159 162.274 47.5497C148.119 61.609 136.746 78.2131 128.75 96.4904C129.483 96.4818 130.359 96.4818 131.315 96.4904ZM431.216 180.148C429.414 194.204 425.686 207.945 420.136 220.985C412.218 239.649 400.865 256.401 386.421 270.796C371.977 285.191 355.146 296.487 336.416 304.38C317.022 312.549 296.418 316.689 275.181 316.689C253.937 316.689 233.333 312.549 213.939 304.38C195.256 296.522 178.273 285.117 163.931 270.796C149.57 256.536 138.12 239.618 130.219 220.985C124.24 206.931 120.377 192.068 118.757 176.881C117.976 176.58 117.228 176.2 116.526 175.745L116.258 175.568C117.799 191.526 121.778 207.154 128.056 221.906C136.078 240.812 147.699 257.978 162.274 272.448C176.83 286.985 194.068 298.562 213.032 306.537C232.708 314.829 253.623 319.032 275.181 319.032C296.732 319.032 317.647 314.829 337.329 306.537C356.288 298.559 373.522 286.983 388.076 272.448C402.653 257.98 414.275 240.814 422.293 221.906C427.938 208.64 431.726 194.658 433.55 180.356C432.77 180.305 431.992 180.236 431.216 180.148V180.148Z" fill="#4D6480"/>
<path fill-rule="evenodd" clip-rule="evenodd" d="M168.411 54.0326C182.144 40.2853 198.41 29.3291 216.31 21.7698C234.891 13.9231 254.622 9.94265 274.967 9.94265C295.308 9.94265 315.048 13.9202 333.617 21.7698C351.52 29.3249 367.787 40.2816 381.516 54.0326C399.2 71.6559 412.209 93.4109 419.366 117.328C419.845 116.695 420.447 115.893 421.126 115.014C419.643 110.254 417.924 105.571 415.976 100.982C408.3 82.8066 397.161 66.2986 383.18 52.3777C369.236 38.41 352.715 27.2791 334.533 19.6012C315.664 11.629 295.622 7.5915 274.964 7.5915C254.864 7.55953 234.957 11.4997 216.385 19.1856C197.813 26.8715 180.943 38.1516 166.745 52.3777C153.908 65.1637 143.458 80.1391 135.886 96.5988C136.787 96.6274 137.652 96.6588 138.431 96.7044C145.858 80.8399 156.004 66.398 168.411 54.0326V54.0326ZM424.55 178.861C422.87 192.71 419.255 206.254 413.81 219.099C406.246 236.99 395.278 253.242 381.516 266.952C367.788 280.706 351.521 291.665 333.617 299.221C315.048 307.073 295.308 311.051 274.967 311.051C254.622 311.051 234.891 307.07 216.31 299.221C198.408 291.663 182.141 280.704 168.411 266.952C154.649 253.243 143.682 236.991 136.12 219.099C130.655 206.22 127.036 192.634 125.368 178.744C124.635 178.744 123.779 178.721 122.986 178.661C124.667 192.894 128.359 206.816 133.951 220.012C141.633 238.184 152.773 254.69 166.75 268.613C180.693 282.582 197.214 293.713 215.397 301.386C234.266 309.356 254.311 313.402 274.969 313.402C295.628 313.402 315.67 309.356 334.539 301.386C352.721 293.711 369.242 282.581 383.186 268.613C397.167 254.694 408.306 238.186 415.982 220.012C421.478 207.068 425.136 193.42 426.85 179.463C426.075 179.298 425.307 179.097 424.55 178.861V178.861ZM448.987 184.685C453.207 184.685 456.733 187.994 456.733 192.337C456.733 196.763 453.207 200.073 448.987 200.073C444.752 200.073 441.2 196.763 441.2 192.337C441.203 187.994 444.752 184.685 448.987 184.685ZM448.987 198.946C452.565 198.946 455.33 196.104 455.33 192.337C455.33 188.659 452.565 185.817 448.987 185.817C445.38 185.817 442.606 188.659 442.606 192.337C442.606 196.104 445.383 198.946 448.987 198.946ZM445.973 187.869H449.463C451.614 187.869 452.627 188.722 452.627 190.443C452.627 192.069 451.597 192.751 450.253 192.894L452.833 196.868H451.318L448.872 192.996H447.38V196.868H445.976V187.869H445.973V187.869ZM447.377 191.864H448.844C450.088 191.864 451.224 191.804 451.224 190.38C451.224 189.193 450.194 189.01 449.235 189.01H447.38V191.864H447.377Z" fill="#4D6480"/>
<path fill-rule="evenodd" clip-rule="evenodd" d="M242.801 224.029V209.44C242.801 209.44 239.654 206.307 230.994 206.307C222.337 206.307 206.752 213.358 206.752 230.923C206.752 248.482 223.281 255.387 231.621 255.387C239.97 255.387 242.801 251.938 242.801 251.938V237.665C242.801 237.665 239.02 243.155 231.932 243.155C224.856 243.155 218.875 237.979 218.875 231.086C218.875 224.18 224.38 218.063 231.619 218.063C238.857 218.063 242.801 224.029 242.801 224.029ZM314.617 218.063V207.868H286.931V254.609H299.52V236.413H311.581V225.439H299.52V218.063H314.617V218.063ZM330.778 245.041V236.413H343.786V225.439H330.778V218.063H345.47V207.868H317.872V254.603H347.059V245.041H330.778V245.041ZM504.008 202.541C504.008 202.541 506.604 203.248 509.363 203.248C512.111 203.248 520.694 203.166 530.92 193.133L526.752 178.784L529.816 180.824L533.914 194.466C533.914 194.466 523.208 205.599 511.087 205.599C508.964 205.599 503.614 203.248 504.008 202.541V202.541ZM258.272 208.136L242.41 253.867H254.377L258.003 242.419H271.015L275.26 253.867H286.329L271.075 208.136H258.272V208.136ZM266.932 232.635H261.173L264.558 222.175L267.939 232.635H266.932Z" fill="#4D6480"/>
<path fill-rule="evenodd" clip-rule="evenodd" d="M94.8289 56.6519H71.6369L60.4119 98.5219H42.3616L53.5866 56.6519H34.1354C33.4192 57.6049 30.9139 60.6979 26.3486 64.1904C22.2854 67.2749 16.339 67.7171 14.4986 67.7799L11.3913 78.7681C12.1161 78.9451 13.3002 79.179 14.4159 79.179C21.5407 79.179 23.4353 77.1103 23.4439 77.1046L24.7279 77.7467L1.04224 167.308H23.9204L38.1301 114.304H56.1803L41.9707 167.308H65.1598L94.8289 56.6519V56.6519Z" fill="#4D6480"/>
<path fill-rule="evenodd" clip-rule="evenodd" d="M57.6926 60.7148L48.6532 94.4272H49.5463L58.5172 60.7148H57.6926V60.7148ZM98.8465 61.043L69.1174 172.306H47.9427L47.5775 173.579H69.5682L99.7082 61.043H98.8465ZM42.8666 120.107H50.759L51.0443 118.909H42.0934L27.8837 172.286H5.86724L5.47919 173.579H28.326L42.8666 120.107V120.107Z" fill="#4D6480"/>
<path fill-rule="evenodd" clip-rule="evenodd" d="M99.1975 169.342C107.621 169.342 114.277 163.53 114.349 163.467L115.002 162.888L115.462 163.636C115.607 163.875 119.159 169.553 127.426 169.553C135.093 169.553 140.95 165.245 141.981 164.437L145.134 151.515C142.991 152.858 140.851 153.56 139.598 153.56C138.982 153.56 137.875 153.461 137.332 152.744C137.189 152.553 137.093 152.329 137.053 152.093C137.012 151.857 137.029 151.615 137.101 151.386C137.392 150.33 148.723 106.86 150.504 100.04H130.581L128.23 107.196L127.471 105.325C127.029 104.217 121.981 99.5151 115.664 99.5151C109.335 99.5151 102.952 102.554 97.2087 108.295C87.8326 117.674 81.7749 132.488 81.7749 146.033C81.7749 153.76 84.2031 160.628 88.4489 164.863C91.385 167.793 95.0972 169.342 99.1975 169.342V169.342ZM117.251 112.678C118.831 112.678 120.152 113.205 121.188 114.236C123.753 116.809 123.753 121.766 123.753 124.148V124.294C123.753 136.58 118.834 145.873 114.24 150.47C111.972 152.739 109.649 153.983 107.695 153.983C105.977 153.983 104.305 153.258 102.984 151.937C101.395 150.356 99.5085 147.103 99.5085 140.595C99.5113 129.615 107.124 112.678 117.251 112.678Z" fill="#4D6480"/>
<path fill-rule="evenodd" clip-rule="evenodd" d="M107.344 149.562C107.33 149.436 107.289 149.313 107.224 149.203C106.314 147.674 105.481 145.613 105.481 140.957C105.481 130.151 112.337 117.491 118.363 117.177C118.423 117.177 118.463 117.191 118.523 117.2C118.023 116.967 117.476 116.855 116.925 116.872C115.904 116.872 114.566 117.651 113.162 119.054C108.793 123.414 104.128 133.41 104.128 141.331C104.128 147.323 106.405 149.089 107.344 149.562ZM154.33 104.845L143.051 147.599L144.32 146.906L155.331 104.845H154.33ZM127.503 174.498C119.776 174.498 115.681 170.86 114.34 169.388C112.583 170.754 106.964 174.575 99.0919 174.575C91.502 174.575 87.2248 170.586 85.7182 168.84L85.5214 169.102C86.3232 171.522 91.288 175.611 98.9378 175.611C107.024 175.611 113.498 171.391 113.561 171.342L114.049 171.025L114.477 171.433C114.523 171.479 118.951 175.614 126.641 175.614C133.109 175.614 139.333 172.8 140.776 172.098L141.028 170.66C138.773 172.124 134.134 174.498 127.503 174.498V174.498Z" fill="#4D6480"/>
<path fill-rule="evenodd" clip-rule="evenodd" d="M174.671 129.526C178.329 116.912 189.021 116.755 189.129 116.755C190.724 116.755 193.543 117.756 194.919 118.284L199.193 101.341C198.737 101.104 197.858 100.776 196.474 100.776C189.463 100.776 182.087 106.317 182.019 106.374L180.255 107.71L182.278 100.667H163.044L145.273 168.303L164.317 168.309C165.341 164.343 171.795 139.459 174.671 129.526V129.526Z" fill="#4D6480"/>
<path fill-rule="evenodd" clip-rule="evenodd" d="M189.235 121.682C186.57 121.682 180.943 124.402 179.345 130.944C177.687 137.772 168.625 172.013 168.534 172.364L168.388 172.903H149.045L148.595 174.252L169.045 174.275C170.294 169.639 179.231 136.611 179.91 133.441C180.712 129.655 182.133 127.166 183.177 125.737C184.447 124.014 187.914 122.721 189.549 122.721C190.433 122.721 191.503 122.804 192.188 122.866C191.908 122.367 190.944 121.682 189.235 121.682V121.682ZM202.597 105.264L200.848 111.807C201.122 111.464 201.404 111.142 201.687 110.854L203.259 105.264H202.597ZM201.827 110.703C201.781 110.748 201.735 110.803 201.69 110.854L201.644 111.022L201.827 110.703V110.703Z" fill="#4D6480"/>
<path fill-rule="evenodd" clip-rule="evenodd" d="M207.913 168.926C214.824 168.926 221.169 164.506 221.229 164.463L222.742 163.399L221.712 168.509L242.29 168.515L269.913 64.9155H248.981L238.215 105.761L237.87 107.059L236.963 106.075C236.914 106.029 232.357 101.187 225.538 101.187C219.629 101.187 213.511 104.18 207.861 109.833C198.414 119.277 192.071 134.54 192.071 147.817C192.071 155.33 194.034 161.439 197.604 165.011C200.206 167.61 203.676 168.926 207.913 168.926V168.926ZM227.324 113.83C229.002 113.83 230.392 114.495 231.439 115.802C233.567 118.459 233.621 123.147 233.285 124.659C233.256 124.804 229.895 139.496 228.62 142.267C224.04 152.194 217.663 154.819 214.935 154.819C213.714 154.819 212.524 154.271 211.491 153.247C209.705 151.46 208.643 148.45 208.643 145.197C208.646 130.54 218.596 113.83 227.324 113.83V113.83Z" fill="#4D6480"/>
<path fill-rule="evenodd" clip-rule="evenodd" d="M215.571 150.829C215.441 150.469 215.339 150.099 215.266 149.722C215.197 149.363 214.624 146.156 214.624 144.361C214.624 133.441 222.873 119.063 227.744 119.063C228.323 119.063 228.734 119.114 229.042 119.191C229.036 119.183 229.036 119.169 229.025 119.16C228.759 118.786 228.217 118.592 227.475 118.592C226.123 118.592 224.565 119.434 222.979 121.021C217.94 126.062 213.677 137.156 213.677 145.251C213.677 147.771 214.136 149.62 214.952 150.436C215.126 150.612 215.338 150.746 215.571 150.829Z" fill="#4D6480"/>
<path fill-rule="evenodd" clip-rule="evenodd" d="M207.699 175.1C213.403 175.1 216.473 173.622 216.501 173.608L217.563 173.071V174.889H246.587L274.116 70.1396H273.215L245.937 173.431H218.082V171.805C216.519 172.701 213.354 173.956 207.913 173.956C202.078 173.956 198.36 171.337 196.465 169.799C197.986 171.896 202.917 175.1 207.699 175.1V175.1Z" fill="#4D6480"/>
<path fill-rule="evenodd" clip-rule="evenodd" d="M338.499 196.004C351.151 196.004 358.07 189.601 359.403 188.223L355.536 173.944C354.198 174.82 351.548 176.301 348.894 176.301C343.264 176.301 342.363 172.566 341.555 166.409C341.181 163.595 341.572 161.561 342.117 158.75C342.736 155.552 343.59 151.169 343.59 143.257C343.59 127.794 338.045 121.571 337.983 121.52C337.72 121.252 337.024 120.555 337.281 119.776C337.515 119.052 338.368 118.823 339.181 118.701C351.97 116.692 365.786 103.995 365.786 86.9658C365.786 80.192 363.144 73.9688 358.139 68.9669C351.473 62.3043 342.283 59.3169 336.137 59.3169C321.853 59.3169 314.246 59.4453 312.93 59.471C309.52 61.917 306.054 64.2849 302.536 66.573C297.927 69.5433 292.438 69.3065 290.566 69.1153L287.29 81.3191C288.36 81.67 290.617 82.312 292.697 82.312C295.533 82.312 301.069 80.4859 301.123 80.4716L302.421 80.0465L300.989 85.4051L301.183 85.5506C301.097 85.5903 301.009 85.6265 300.921 85.659L278.858 168.566H302.053L327.599 72.6106L328.062 72.525C328.19 72.5022 331.22 71.9686 333.155 71.9686C337.241 71.9686 340.879 73.3582 343.415 75.8863C345.884 78.3544 347.188 81.7813 347.188 85.7988C347.188 92.0762 343.715 96.8698 340.796 99.7802C335.552 105.025 328.518 107.858 324.572 107.858C323.513 107.858 323.262 108.295 323.157 108.714L322.421 111.493C321.584 114.655 320.181 119.953 320.018 120.755C319.818 121.751 319.818 121.751 320.446 122.216C323.277 124.33 324.598 128.936 324.598 136.685C324.598 150.142 322.475 156.799 320.768 162.149C319.524 166.061 318.46 169.439 318.46 174.475C318.46 181.426 320.432 187.076 324.184 190.825C327.631 194.266 332.439 196.004 338.499 196.004V196.004Z" fill="#4D6480"/>
<path fill-rule="evenodd" clip-rule="evenodd" d="M290.069 86.9974L289.701 88.0902C290.999 88.1815 293.479 88.2956 295.747 88.0132C298.116 87.7221 299.408 87.0516 299.876 86.7548L299.988 85.9901C297.731 86.7122 295.375 87.078 293.005 87.0744C291.875 87.0744 290.731 87.0287 290.069 86.9974V86.9974ZM326.104 103.264L332.847 77.6612H333.409C334.251 77.6612 336.068 77.8153 338.81 78.8596C339.98 79.3019 340.548 79.8897 340.893 80.2492C340.933 80.195 340.939 80.1636 340.939 80.1436C340.933 80.0751 340.77 79.3932 338.402 78.0949C336.998 77.3245 333.526 77.2703 331.777 77.3302L324.766 103.498L326.104 103.264V103.264ZM318.663 126.102L305.962 173.639H283.281L282.976 174.681L307.03 174.781L319.379 128.071C319.633 127.081 319.142 126.456 318.663 126.102V126.102ZM361.346 176.698L364.656 189.549L364.733 189.861L364.559 190.129C361.577 194.788 351.316 201.237 339.803 201.237C337.318 201.237 335.095 200.892 333.337 200.501C335.366 201.331 338.391 202.067 342.109 202.067C355.394 202.067 364.322 192.186 365.76 190.491L362.55 177.708L361.346 176.698V176.698ZM362.367 109.861C351 121.263 345.744 121.857 343.764 122.079C343.719 122.088 343.675 122.093 343.629 122.094C343.712 122.23 343.804 122.385 343.898 122.527C345.156 124.582 348.523 130.043 348.523 142.481C348.523 148.353 347.664 153.355 346.979 157.378C346.517 160.112 346.109 162.466 346.109 164.326C346.109 168.378 347.787 171.494 348.589 172.078C348.499 171.839 348.4 171.603 348.292 171.371C347.747 170.118 346.837 168.027 346.837 164.956C346.837 163.313 347.182 160.993 347.627 158.06C348.306 153.563 349.142 147.959 349.142 141.956C349.142 129.615 345.615 123.797 345.587 123.737L345.119 122.995L345.926 122.667C354.937 119.009 371.969 106.982 371.969 87.5937C371.969 79.0936 368.462 73.6808 365.677 70.7104C368.074 74.1915 371.022 80.1094 371.022 87.4853C371.027 98.2909 365.583 106.631 362.367 109.861V109.861ZM348.78 172.218H348.797V172.207L348.78 172.218Z" fill="#4D6480"/>
<path fill-rule="evenodd" clip-rule="evenodd" d="M400.813 156.197C406.343 148.284 409.77 137.832 409.77 128.913C409.77 120.359 407.028 112.9 402.046 107.921C397.949 103.818 392.627 101.658 386.664 101.658C365.392 101.658 351.271 127.834 351.271 145.146C351.271 153.286 353.813 160.129 358.627 164.939C360.632 166.947 363.015 168.536 365.639 169.615C368.263 170.694 371.075 171.242 373.912 171.225C387.468 171.225 396.028 163.056 400.813 156.197V156.197ZM368.291 156.616C367.401 155.09 366.947 152.958 366.947 150.27C366.947 137.718 377.116 115.245 387.137 115.245C389.255 115.245 390.927 116.207 391.985 118.039C395.452 124.045 391.803 138.44 386.219 148.119C382.061 155.321 377.359 159.29 372.97 159.29C370.933 159.29 369.315 158.365 368.291 156.616V156.616Z" fill="#4D6480"/>
<path fill-rule="evenodd" clip-rule="evenodd" d="M372.968 150.324C372.968 136.48 383.616 120.63 387.982 120.63C388.356 120.63 388.672 120.735 388.969 120.875C388.912 120.749 388.858 120.621 388.775 120.515C388.69 120.385 388.572 120.279 388.434 120.208C388.295 120.137 388.14 120.104 387.985 120.11C386.815 120.11 385.066 121.195 383.18 123.081C377.773 128.488 372.029 139.507 372.029 149.283C372.029 151.397 372.437 154.057 373.344 155.201C373.595 155.529 373.881 155.666 374.209 155.629C374.445 155.598 374.665 155.491 374.834 155.323C374.18 154.716 372.968 153.592 372.968 150.324V150.324ZM376.009 176.358C372.577 176.358 369.395 175.451 367.344 174.709C368.619 175.959 371.116 177.394 375.904 177.394C396.217 177.394 409.436 154.47 410.01 151.292L409.97 149.337C404.403 161.501 391.423 176.358 376.009 176.358ZM410.021 151.257L410.01 151.295V151.377L410.021 151.257ZM408.044 107.752C409.887 109.947 413.377 115.228 414.475 124.613L415.032 123.332C414.88 121.842 413.594 111.37 408.044 107.752V107.752Z" fill="#4D6480"/>
<path fill-rule="evenodd" clip-rule="evenodd" d="M435.094 171.334C443.608 171.334 449.885 167.12 451.015 166.301L454.548 151.309C451.489 153.678 444.818 158.274 439.182 158.274C436.803 158.274 434.991 157.618 433.65 156.283C431.795 154.428 430.891 151.244 430.891 146.561C430.891 133.136 440.358 115.819 450.413 115.819C456.46 115.819 460.266 120.633 461.909 123.264L465.248 110.247C464.201 108.971 458.834 103.076 448.419 103.076C440.98 103.076 433.011 106.777 426.551 113.24C418.102 121.686 413.26 133.484 413.26 145.625C413.26 154.057 415.697 160.956 420.305 165.559C424.088 169.331 429.199 171.334 435.094 171.334V171.334Z" fill="#4D6480"/>
<path fill-rule="evenodd" clip-rule="evenodd" d="M463.376 135.709L462.54 133.664C462.483 133.541 457.39 121.369 450.624 121.369C448.653 121.369 446.521 122.453 444.461 124.521C439.719 129.264 436.141 138.289 436.141 145.514C436.141 153.8 439.636 154.279 439.785 154.296C439.859 154.301 439.933 154.303 440.007 154.302C438.503 152.83 437.194 149.56 437.194 144.572C437.194 138.021 440.972 128.054 446.401 124.23C448.541 122.727 450.77 122.33 452.861 123.072C456.377 124.33 461.661 133.15 463.807 136.962L469.502 115.008L468.817 114.575L463.376 135.709V135.709ZM459.142 153.112L455.007 168.914L454.947 169.142L454.759 169.293C454.408 169.579 446.088 176.204 434.985 176.204C426.782 176.204 421.46 172.615 419.169 170.654C419.486 171.168 419.888 171.713 420.467 172.298C422.602 174.432 426.842 176.975 434.88 176.975C445.72 176.975 454.1 171.413 455.438 170.477L459.764 153.56L459.142 153.112V153.112Z" fill="#4D6480"/>
<path fill-rule="evenodd" clip-rule="evenodd" d="M526.372 191.986L522.572 179.62C521.35 180.718 518.945 182.422 515.672 182.422C514.206 182.422 512.853 181.837 511.749 180.733C510.428 179.417 508.856 176.715 508.856 171.337C508.79 157.869 505.106 152.231 503.343 149.52C502.478 148.19 501.905 147.311 502.301 146.376C502.53 145.839 503.203 145.511 505.015 144.649C511.101 141.739 525.357 134.928 525.853 116.898C525.97 112.957 524.877 109.781 522.614 107.459C519.955 104.725 515.615 103.222 510.382 103.222C503.015 103.222 495.799 108.064 493.764 109.545L492.098 110.757L503.774 66.3677H486.705L459.547 169.656H476.607C477.811 165.096 486.337 132.674 486.348 132.634C490.577 119.514 503.06 116.544 505.186 116.544C507.392 116.544 509.044 117.08 510.102 118.133C510.956 118.978 511.378 120.142 511.378 121.569C511.378 124.553 510.034 127.418 507.372 130.083C502.35 135.102 494.204 137.881 490.497 137.881C490.152 137.881 489.918 138.246 489.861 138.606C489.784 139.125 488.891 142.469 487.903 146.136L487.324 148.299C487.162 148.961 487.173 148.969 487.501 149.16C491.145 151.241 493.325 157.569 493.325 166.106C493.325 171.374 492.922 173.557 492.56 175.48C492.298 176.901 492.069 178.133 492.069 180.427C492.069 186.263 493.824 191.105 497.157 194.437C500.093 197.373 504.068 198.923 508.647 198.923C517.193 198.929 524.686 193.339 526.372 191.986V191.986Z" fill="#4D6480"/>
<path fill-rule="evenodd" clip-rule="evenodd" d="M500.792 101.469L508.955 70.0312H507.64L499.402 102.077C499.83 101.866 500.304 101.652 500.792 101.469V101.469ZM492.546 132.99L492.745 132.52C493.447 130.816 494.746 127.655 498.036 125.264C501.942 122.439 504.975 122.025 506.852 122.193C506.864 122.119 506.852 121.962 506.658 121.782C506.225 121.346 505.543 121.354 504.998 121.363L504.775 121.369C503.991 121.392 497.676 122.775 494.466 127.523C492.232 130.839 491.701 132.771 491.573 133.635C491.927 133.601 492.349 133.464 492.546 132.99V132.99ZM525.799 134.137C520.032 143.582 509.375 148.079 507.825 148.69C508.293 149.272 509.001 150.165 511.426 155.891C513.17 160.032 513.21 164.605 513.238 168.646C513.255 170.569 513.272 172.395 513.472 173.956C513.917 177.457 515.741 177.808 516.982 177.822C514.234 176.692 514.24 173.594 514.297 169.413L514.32 167.356C514.32 157.164 509.866 150.267 509.823 150.199L509.349 149.48L510.134 149.123C517.998 145.574 521.279 141.793 525.827 136.563C530.296 131.415 531.54 121.717 531.317 119.337C531.26 118.749 531.032 118.09 530.744 117.442C530.832 121.352 529.873 127.486 525.799 134.137V134.137ZM486.069 153.027L480.507 174.036L480.356 174.575H461.986L461.664 175.679H480.964L486.765 153.982C486.584 153.63 486.349 153.307 486.069 153.027V153.027ZM242.07 239.629C240.327 241.355 236.929 243.886 231.944 243.886C228.086 243.886 224.382 242.399 221.786 239.805C220.631 238.665 219.715 237.307 219.088 235.809C218.462 234.312 218.138 232.706 218.136 231.083C218.136 223.499 224.191 217.33 231.621 217.33C236.76 217.33 240.281 220.126 242.07 221.989V209.785C241.243 209.149 237.993 207.038 230.996 207.038C226.234 207.038 219.155 209.323 214.062 214.405C209.699 218.768 207.493 224.326 207.493 230.923C207.493 237.26 209.668 242.653 213.953 246.933C219.255 252.243 226.828 254.651 231.624 254.651C238.412 254.651 241.383 252.289 242.073 251.635V239.629H242.07V239.629ZM287.661 208.61V253.867H298.781V235.682H310.839V226.175H298.781V217.333H313.883V208.61H287.661V208.61ZM286.931 253.867L287.165 254.112L287.344 253.867H286.931ZM330.778 245.775H330.045V235.682H343.056V226.175H330.045V217.333H344.734V208.61H318.608V253.867H346.317V245.775H330.778V245.775ZM528.016 180.51L531.751 193.344L531.44 193.661C524.452 200.503 517.022 203.982 509.366 203.982C508.699 203.982 508.057 203.942 507.454 203.882C508.753 204.413 510.202 204.858 511.087 204.858C521.704 204.858 531.357 195.941 533.078 194.252L529.194 181.289L528.016 180.51V180.51Z" fill="#4D6480"/>
<path fill-rule="evenodd" clip-rule="evenodd" d="M231.307 214.773C223.803 214.773 215.568 220.157 215.568 231.859C215.568 241.115 226.428 246.605 231.307 246.605C236.187 246.605 239.654 244.408 239.654 244.408V250.371C239.654 250.371 236.346 252.098 231.148 252.098C222.048 252.098 210.218 244.456 210.218 231.856C210.218 213.672 226.268 209.591 230.996 209.591C235.719 209.591 239.656 211.475 239.656 211.475V217.121C239.654 217.124 237.608 214.773 231.307 214.773V214.773ZM311.375 215.007V210.833H290.28V251.627H296.572V233.014H308.225V229.045H296.572V215.007H311.375ZM343.698 247.86H327.537V233.231H340.542V229.257H327.537V214.719H342.114V210.439H321.239V252.163H327.537V252.152H343.698V247.86V247.86ZM255.866 240.182H273.177L276.796 251.784H282.625L268.932 210.071H259.798L245.788 251.473H251.926L255.866 240.182V240.182ZM264.466 215.247L271.077 234.578H257.861L264.466 215.247V215.247Z" fill="white"/>
</svg>
