<svg width="160" height="46" viewBox="0 0 160 46" fill="none" xmlns="http://www.w3.org/2000/svg">
<path d="M32.5198 45.9252C31.8128 45.9252 31.2405 45.3506 31.2405 44.6459C31.2405 43.9381 31.8128 43.3651 32.5198 43.3651C33.226 43.3651 33.799 43.9381 33.799 44.6459C33.799 45.3506 33.226 45.9252 32.5198 45.9252ZM39.424 45.9252C38.3547 45.9252 37.4881 45.0578 37.4881 43.9877C37.4881 42.9191 38.3547 42.0517 39.424 42.0517C40.4935 42.0517 41.3615 42.9191 41.3615 43.9877C41.3615 45.0578 40.4935 45.9252 39.424 45.9252ZM47.6417 45.9252C46.2106 45.9252 45.0499 44.7651 45.0499 43.331C45.0499 41.9 46.2106 40.7384 47.6417 40.7384C49.0743 40.7384 50.2358 41.9 50.2358 43.331C50.2358 44.7651 49.0743 45.9252 47.6417 45.9252ZM57.175 45.9252C55.38 45.9252 53.9249 44.4709 53.9249 42.6728C53.9249 40.8801 55.38 39.4258 57.175 39.4258C58.9707 39.4258 60.4266 40.8801 60.4266 42.6728C60.4266 44.4709 58.9707 45.9252 57.175 45.9252ZM68.0209 45.9252C65.8642 45.9252 64.1142 44.1766 64.1142 42.0177C64.1142 39.861 65.8642 38.111 68.0209 38.111C70.1798 38.111 71.9283 39.861 71.9283 42.0177C71.9283 44.1766 70.1798 45.9252 68.0209 45.9252ZM80.1832 45.9252C77.6626 45.9252 75.619 43.8823 75.619 41.361C75.619 38.8389 77.6626 36.7969 80.1832 36.7969C82.7053 36.7969 84.748 38.8389 84.748 41.361C84.748 43.8823 82.7053 45.9252 80.1832 45.9252ZM92.3447 45.9252C90.1858 45.9252 88.4372 44.1766 88.4372 42.0177C88.4372 39.861 90.1858 38.111 92.3447 38.111C94.5005 38.111 96.2522 39.861 96.2522 42.0177C96.2522 44.1766 94.5005 45.9252 92.3447 45.9252ZM103.191 45.9252C101.396 45.9252 99.9397 44.4709 99.9397 42.6728C99.9397 40.8801 101.396 39.4258 103.191 39.4258C104.987 39.4258 106.441 40.8801 106.441 42.6728C106.441 44.4709 104.987 45.9252 103.191 45.9252ZM112.723 45.9252C111.29 45.9252 110.129 44.7651 110.129 43.331C110.129 41.9 111.29 40.7384 112.723 40.7384C114.154 40.7384 115.316 41.9 115.316 43.331C115.316 44.7651 114.154 45.9252 112.723 45.9252ZM120.942 45.9252C119.872 45.9252 119.005 45.0578 119.005 43.9877C119.005 42.9191 119.872 42.0517 120.942 42.0517C122.011 42.0517 122.878 42.9191 122.878 43.9877C122.878 45.0578 122.011 45.9252 120.942 45.9252ZM127.847 45.9252C127.139 45.9252 126.566 45.3506 126.566 44.6459C126.566 43.9381 127.139 43.3651 127.847 43.3651C128.554 43.3651 129.126 43.9381 129.126 44.6459C129.126 45.3506 128.554 45.9252 127.847 45.9252Z" fill="#4d6480"/>
<path d="M68.0209 38.1108C65.8635 38.1108 64.1134 39.8602 64.1134 42.0176C64.1134 44.175 65.8635 45.9234 68.0209 45.9234C70.1806 45.9234 71.9291 44.175 71.9291 42.0176C71.9291 39.8602 70.1806 38.1108 68.0209 38.1108Z" fill="#4d6480"/>
<path d="M57.1742 39.4253C55.38 39.4253 53.9249 40.8804 53.9249 42.6746C53.9249 44.4711 55.38 45.9254 57.1742 45.9254C58.9707 45.9254 60.4266 44.4711 60.4266 42.6746C60.4266 40.8804 58.9707 39.4253 57.1742 39.4253Z" fill="#4d6480"/>
<path d="M47.6424 40.7383C46.2106 40.7383 45.0491 41.8998 45.0491 43.3308C45.0491 44.765 46.2106 45.925 47.6424 45.925C49.075 45.925 50.2358 44.765 50.2358 43.3308C50.2358 41.8998 49.075 40.7383 47.6424 40.7383Z" fill="#4d6480"/>
<path d="M39.424 42.0518C38.3554 42.0518 37.4889 42.9191 37.4889 43.9877C37.4889 45.0579 38.3554 45.9252 39.424 45.9252C40.4927 45.9252 41.3615 45.0579 41.3615 43.9877C41.3615 42.9191 40.4927 42.0518 39.424 42.0518Z" fill="#4d6480"/>
<path d="M32.5205 43.3667C31.8128 43.3667 31.2405 43.9382 31.2405 44.646C31.2405 45.3522 31.8128 45.9253 32.5205 45.9253C33.226 45.9253 33.799 45.3522 33.799 44.646C33.799 43.9382 33.226 43.3667 32.5205 43.3667Z" fill="#4d6480"/>
<path d="M92.3463 38.1108C90.1858 38.1108 88.4357 39.8602 88.4357 42.0176C88.4357 44.175 90.1858 45.9234 92.3463 45.9234C94.5021 45.9234 96.2522 44.175 96.2522 42.0176C96.2522 39.8602 94.5021 38.1108 92.3463 38.1108Z" fill="#4d6480"/>
<path d="M103.192 39.4253C101.396 39.4253 99.9397 40.8804 99.9397 42.6746C99.9397 44.4711 101.396 45.9254 103.192 45.9254C104.987 45.9254 106.441 44.4711 106.441 42.6746C106.441 40.8804 104.987 39.4253 103.192 39.4253Z" fill="#4d6480"/>
<path d="M112.723 40.7383C111.29 40.7383 110.129 41.8998 110.129 43.3308C110.129 44.765 111.29 45.925 112.723 45.925C114.156 45.925 115.316 44.765 115.316 43.3308C115.316 41.8998 114.156 40.7383 112.723 40.7383Z" fill="#4d6480"/>
<path d="M120.942 42.0518C119.872 42.0518 119.005 42.9191 119.005 43.9877C119.005 45.0579 119.872 45.9252 120.942 45.9252C122.011 45.9252 122.878 45.0579 122.878 43.9877C122.878 42.9191 122.011 42.0518 120.942 42.0518Z" fill="#4d6480"/>
<path d="M127.847 43.3667C127.139 43.3667 126.566 43.9382 126.566 44.646C126.566 45.3522 127.139 45.9253 127.847 45.9253C128.554 45.9253 129.126 45.3522 129.126 44.646C129.126 43.9382 128.554 43.3667 127.847 43.3667Z" fill="#4d6480"/>
<path d="M3.98723 19.9348C5.0582 19.6615 5.10617 19.1852 5.30909 17.6551L5.32764 17.3965C5.46007 15.5891 6.04321 15.0602 7.63063 14.6567L8.66211 14.395L13.4028 33.0449C14.3607 36.8146 10.9365 34.812 11.6225 37.5115L12.1089 39.4235C17.0369 38.0087 22.0254 36.7387 27.0697 35.6205L26.5818 33.7094C25.8973 31.0099 23.8445 34.4048 22.8866 30.6344L18.1459 11.9836L19.1781 11.7218C20.7648 11.3192 21.5314 11.5043 22.5094 13.0305L22.6488 13.2473C23.5579 14.4957 23.8274 14.8922 24.8984 14.6195L26.8428 14.1255L24.8024 6.09375C16.3942 7.82597 8.11925 9.92841 0 12.3909L2.04274 20.4289L3.98723 19.9348Z" fill="#4d6480"/>
<path d="M34.0096 11.2728L36.5828 27.5702C37.2279 31.6559 34.2582 29.3885 34.6802 32.0585L34.993 33.9983C39.867 33.0807 44.7889 32.3032 49.755 31.6698L49.4406 29.7276C49.0193 27.0577 46.8937 30.1296 46.2486 26.0447L43.6746 9.74575C43.0295 5.6617 45.9985 7.92908 45.5772 5.25904L45.238 2.65869C40.2759 3.30606 35.3531 4.07888 30.4746 4.98031L30.8168 7.59064C31.2374 10.26 33.3653 7.18727 34.0096 11.2728Z" fill="#4d6480"/>
<path d="M53.1552 7.0232L62.7629 30.3504C65.0666 30.1754 67.3773 30.0321 69.6966 29.9198L76.4963 6.37195C77.2428 3.82425 79.5396 4.50342 79.435 2.78738L79.2686 0.290039C75.9465 0.32255 72.6368 0.408512 69.3442 0.554886L69.4534 3.23501C69.5765 5.23754 71.8338 3.91021 71.9639 6.03359C71.9987 6.60658 71.7859 7.80998 71.4877 8.97618L69.0097 18.7271L68.9276 18.7318L64.0916 7.41968C62.7032 4.18283 66.6185 5.82917 66.4682 3.37671L66.3025 0.707458C60.9268 1.00482 55.5906 1.45395 50.2977 2.04787L50.4867 4.31605C50.6152 6.40065 52.3359 5.02305 53.1552 7.0232Z" fill="#4d6480"/>
<path d="M120.454 9.60341L117.629 25.859C116.923 29.9354 114.843 26.8301 114.382 29.4924L114.026 31.6096C121.128 32.5016 128.139 33.6833 135.045 35.15L136.93 26.5304L135.312 26.2703C131.673 25.684 133.332 30.7585 127.229 29.7766L126.886 29.7541L130.094 11.2777C130.803 7.20369 132.881 10.3073 133.345 7.64425L133.822 4.98737C128.943 4.08681 124.02 3.3132 119.056 2.66504L118.621 5.08729C118.158 7.74956 121.161 5.52873 120.454 9.60341Z" fill="#4d6480"/>
<path d="M146.301 14.5716L142.196 30.5531C141.167 34.5566 139.341 31.298 138.669 33.9162L138.184 35.8374C143.064 36.9385 147.89 38.1829 152.656 39.5613L153.145 37.6339C153.816 35.0142 150.644 36.9943 151.672 32.9861L155.778 17.0062C156.808 13.0019 158.634 16.2612 159.308 13.6438L160 11.1333C155.227 9.76968 150.401 8.5268 145.527 7.41016L144.832 9.92533C144.161 12.5419 147.331 10.568 146.301 14.5716Z" fill="#4d6480"/>
<path d="M101.913 0.955043C100.375 0.481092 98.7456 0.197689 97.0822 0.10634C95.3756 0.0134061 93.6843 0.124889 92.0674 0.445489C85.8151 1.68607 80.681 6.0984 80.2312 14.3145C79.7456 23.1632 85.0996 28.2206 91.8289 29.8035C92.9951 30.0776 94.2032 30.2511 95.4313 30.3177C96.6966 30.3874 97.9573 30.344 99.1855 30.1845C105.995 29.3087 111.802 24.8661 112.282 16.0677C112.735 7.7989 108.052 2.84292 101.913 0.955043ZM100.589 15.4699C99.9799 26.589 97.265 26.7679 95.6295 26.6797C93.9941 26.5898 91.3132 26.116 91.9203 14.9951C92.532 3.83411 95.2485 3.65451 96.8825 3.74435C98.5195 3.83411 101.199 4.30806 100.589 15.4699Z" fill="#4d6480"/>
</svg>
