<?xml version="1.0" standalone="no"?>
<!DOCTYPE svg PUBLIC "-//W3C//DTD SVG 20010904//EN"
 "http://www.w3.org/TR/2001/REC-SVG-20010904/DTD/svg10.dtd">
<svg version="1.0" xmlns="http://www.w3.org/2000/svg"
 width="500.000000pt" height="500.000000pt" viewBox="0 0 500.000000 500.000000"
 preserveAspectRatio="xMidYMid meet">
<metadata>
Created by potrace 1.11, written by Peter Selinger 2001-2013
</metadata>
<g transform="translate(0.000000,500.000000) scale(0.100000,-0.100000)"
fill="#000000" stroke="none">
<path d="M1049 4996 c-2 -2 -44 -7 -94 -10 -136 -10 -220 -25 -305 -53 -244
-81 -484 -313 -573 -553 -16 -42 -54 -206 -56 -240 0 -8 -4 -55 -8 -105 -11
-119 -10 -2964 0 -3080 12 -139 16 -164 39 -250 80 -305 352 -577 654 -654
176 -45 216 -46 1789 -46 1293 0 1579 3 1650 18 11 3 43 8 70 11 118 17 217
56 335 133 245 160 399 410 426 688 3 33 8 71 12 85 9 39 11 2973 2 3078 -16
175 -43 317 -69 370 -55 111 -80 155 -115 202 -39 54 -137 156 -187 195 -51
40 -88 65 -99 65 -5 0 -10 3 -10 8 0 7 -60 36 -135 66 -57 22 -151 44 -215 51
-30 3 -68 8 -85 12 -31 6 -3019 15 -3026 9z"/>
</g>
</svg>
