<svg width="92" height="64" viewBox="0 0 92 64" fill="none" xmlns="http://www.w3.org/2000/svg">
<path d="M38.3438 19.2188H41.4062V22.2812H38.3438V19.2188Z" fill="black"/>
<path d="M44.4688 19.2188H47.5312V22.2812H44.4688V19.2188Z" fill="black"/>
<path d="M50.5938 19.2188H53.6562V22.2812H50.5938V19.2188Z" fill="black"/>
<path d="M79.6875 13.0938C79.6875 2.43472 58.5823 0.84375 46 0.84375C33.4177 0.84375 12.3125 2.43472 12.3125 13.0938V37.0471C0.0701564 51.9753 0.0625 52.2019 0.0625 52.9062C0.0625 58.8444 25.1934 63.625 46 63.625C66.8066 63.625 91.9375 58.8444 91.9375 52.9062C91.9375 52.2019 91.9298 51.9753 79.6875 37.0471V13.0938ZM46 3.90625C63.1255 3.90625 74.3695 6.80031 76.3187 11.5625H15.6812C17.6305 6.80031 28.8745 3.90625 46 3.90625ZM15.375 14.625H76.625V26.875H65.9062V22.2812C65.9062 21.8751 65.7449 21.4857 65.4578 21.1985C65.1706 20.9113 64.7811 20.75 64.375 20.75H58.25C57.8439 20.75 57.4544 20.9113 57.1672 21.1985C56.8801 21.4857 56.7188 21.8751 56.7188 22.2812V26.875H35.2812V22.2812C35.2812 21.8751 35.1199 21.4857 34.8328 21.1985C34.5456 20.9113 34.1561 20.75 33.75 20.75H27.625C27.2189 20.75 26.8294 20.9113 26.5422 21.1985C26.2551 21.4857 26.0938 21.8751 26.0938 22.2812V26.875H15.375V14.625ZM62.8438 23.8125V29.9375H59.7812V23.8125H62.8438ZM32.2188 23.8125V29.9375H29.1562V23.8125H32.2188ZM15.375 29.9375H26.0938V31.4688C26.0938 31.8749 26.2551 32.2643 26.5422 32.5515C26.8294 32.8387 27.2189 33 27.625 33H33.75C34.1561 33 34.5456 32.8387 34.8328 32.5515C35.1199 32.2643 35.2812 31.8749 35.2812 31.4688V29.9375H56.7188V31.4688C56.7188 31.8749 56.8801 32.2643 57.1672 32.5515C57.4544 32.8387 57.8439 33 58.25 33H64.375C64.7811 33 65.1706 32.8387 65.4578 32.5515C65.7449 32.2643 65.9062 31.8749 65.9062 31.4688V29.9375H76.625V36.0625H15.375V29.9375ZM88.6468 53.0441C86.0789 55.5829 69.0759 60.5625 46 60.5625C22.9241 60.5625 5.92106 55.5829 3.35316 53.0441C4.34541 51.7303 6.87503 48.5835 9.57463 45.25H82.4254C85.1296 48.5835 87.65 51.7303 88.6468 53.0441ZM79.934 42.1875H12.066C12.9403 41.1156 13.7917 40.0744 14.5696 39.125H77.4304C78.2083 40.0744 79.0597 41.1156 79.934 42.1875Z" fill="black"/>
<path d="M9.27755 51.6645C9.32487 51.9102 9.43169 52.1406 9.58865 52.3354C9.74561 52.5303 9.94794 52.6837 10.1779 52.7823C17.6827 55.7764 25.671 57.3752 33.75 57.5001V54.4376C26.8596 54.314 20.0344 53.0793 13.5375 50.7809L14.9233 49.3952L12.7581 47.23L9.69558 50.2925C9.51919 50.4697 9.38886 50.6874 9.31599 50.9265C9.24312 51.1657 9.22992 51.419 9.27755 51.6645Z" fill="black"/>
<path d="M36.8125 54.4375H39.875V57.5H36.8125V54.4375Z" fill="black"/>
</svg>
