<svg width="70" height="70" viewBox="0 0 70 70" fill="none" xmlns="http://www.w3.org/2000/svg">
<path d="M30.3803 31.3086C30.0967 31.3086 29.8147 31.2205 29.5765 31.0475C29.1554 30.7416 28.9446 30.2232 29.0327 29.7102L29.7935 25.2742L26.5705 22.1327C26.1978 21.7695 26.0637 21.2261 26.2245 20.7312C26.3852 20.2363 26.8132 19.8756 27.3282 19.8007L31.7822 19.1535L33.7741 15.1175C34.0044 14.6509 34.4797 14.3555 35 14.3555C35.5205 14.3555 35.9957 14.6509 36.2261 15.1175L38.2178 19.1535L42.6717 19.8007C43.1869 19.8755 43.6145 20.2363 43.7755 20.7312C43.9362 21.2261 43.8021 21.7695 43.4296 22.1327L40.2067 25.2744L40.9675 29.7104C41.0556 30.2232 40.8446 30.7416 40.4235 31.0476C40.0024 31.3534 39.4442 31.3938 38.9837 31.1516L35 29.0572L31.0163 31.1515C30.8163 31.2568 30.5978 31.3086 30.3803 31.3086ZM30.4629 22.1084L32.2168 23.8179C32.5391 24.132 32.6862 24.5845 32.61 25.0281L32.1961 27.4422L34.364 26.3025C34.7624 26.093 35.2382 26.0932 35.6365 26.3025L37.8044 27.4422L37.3903 25.0281C37.3143 24.5846 37.4614 24.1321 37.7835 23.818L39.5374 22.1084L37.1137 21.7562C36.6683 21.6915 36.2834 21.4118 36.0842 21.0083L35 18.812L33.916 21.0083C33.7168 21.4118 33.3319 21.6915 32.8866 21.7562L30.4629 22.1084Z" fill="#122B48"/>
<path d="M25.5542 50.1415C25.1408 50.1415 24.7432 49.9537 24.4809 49.621L22.2417 46.7825L18.6339 47.0179C18.1155 47.0519 17.6211 46.7878 17.361 46.3372C17.1008 45.8866 17.119 45.3271 17.408 44.8944L19.4157 41.8877L18.077 38.5292C17.8842 38.0457 17.9828 37.4949 18.3308 37.1081C18.6792 36.7213 19.2166 36.5658 19.7176 36.707L23.1976 37.6873L25.9781 35.3763C26.3785 35.0437 26.9328 34.9671 27.4081 35.1788C27.8835 35.3904 28.1976 35.8536 28.2182 36.3737L28.3612 39.9862L31.4182 41.9164C31.8582 42.1942 32.1024 42.6977 32.0481 43.2153C31.9937 43.733 31.6501 44.1747 31.162 44.3549L27.7704 45.6074L26.8793 49.1112C26.7511 49.6156 26.3476 50.0034 25.8386 50.1116C25.7439 50.1317 25.6487 50.1415 25.5542 50.1415ZM22.87 44.0041C23.2869 44.0041 23.6831 44.1947 23.9433 44.5246L24.9119 45.7526L25.2973 44.2369C25.4082 43.8008 25.7266 43.4472 26.1487 43.2912L27.6158 42.7494L26.2933 41.9145C25.9128 41.6743 25.675 41.2622 25.6572 40.8125L25.5953 39.2498L24.3925 40.2495C24.0464 40.5372 23.581 40.6361 23.1478 40.5141L21.6424 40.09L22.2216 41.5429C22.3882 41.9608 22.3385 42.4341 22.0886 42.8083L21.22 44.1089L22.7806 44.0071C22.8107 44.005 22.8405 44.0041 22.87 44.0041Z" fill="#122B48"/>
<path d="M44.4806 50.1417C44.3862 50.1417 44.2909 50.1319 44.1963 50.1118C43.6873 50.0035 43.2838 49.6158 43.1556 49.1114L42.2644 45.6074L38.8727 44.355C38.3845 44.1746 38.0409 43.7329 37.9865 43.2154C37.9322 42.6978 38.1763 42.1943 38.6164 41.9165L41.6735 39.9863L41.8165 36.3737C41.837 35.8537 42.1511 35.3906 42.6266 35.1788C43.1021 34.967 43.6565 35.0437 44.0565 35.3764L46.837 37.6873L50.3172 36.7071C50.8176 36.5661 51.3555 36.7214 51.7039 37.1082C52.0521 37.495 52.1506 38.0458 51.9578 38.5292L50.6192 41.8877L52.6269 44.8945C52.9158 45.3273 52.9341 45.8866 52.6739 46.3373C52.4138 46.7879 51.922 47.0519 51.4008 47.018L47.7931 46.7825L45.5539 49.6211C45.2915 49.9537 44.8939 50.1416 44.4806 50.1417ZM42.4186 42.7496L43.8859 43.2914C44.3081 43.4473 44.6264 43.801 44.7374 44.237L45.1228 45.7528L46.0915 44.5248C46.3702 44.1715 46.8038 43.9786 47.254 44.0072L48.8146 44.109L47.9461 42.8084C47.6961 42.4342 47.6465 41.9609 47.813 41.5429L48.392 40.09L46.8865 40.5141C46.4534 40.6359 45.9878 40.5371 45.6419 40.2496L44.4391 39.2499L44.3773 40.8126C44.3595 41.2622 44.1216 41.6743 43.7411 41.9145L42.4186 42.7496Z" fill="#122B48"/>
<path d="M35.0178 70C34.6582 70 34.3055 69.8537 34.0512 69.5994C33.7955 69.3451 33.6506 68.9924 33.6506 68.6328C33.6506 68.2732 33.7955 67.9205 34.0512 67.6662C34.3055 67.4119 34.6582 67.2656 35.0178 67.2656C35.3773 67.2656 35.7301 67.4119 35.9844 67.6662C36.2385 67.9205 36.3849 68.2732 36.3849 68.6328C36.3849 68.9924 36.2387 69.3451 35.9844 69.5994C35.7301 69.8537 35.3773 70 35.0178 70Z" fill="#122B48"/>
<path d="M35.0173 63.8477C34.2622 63.8477 33.6501 63.2356 33.6501 62.4805V49.9707C33.6501 49.2156 34.2622 48.6035 35.0173 48.6035C35.7723 48.6035 36.3845 49.2156 36.3845 49.9707V62.4805C36.3845 63.2356 35.7723 63.8477 35.0173 63.8477Z" fill="#122B48"/>
<path d="M5.88162 19.5356C5.52205 19.5356 5.16932 19.3894 4.91502 19.1351C4.66072 18.8808 4.51443 18.528 4.51443 18.1685C4.51443 17.8089 4.66072 17.4562 4.91502 17.2019C5.16932 16.9476 5.52205 16.8013 5.88162 16.8013C6.24119 16.8013 6.59393 16.9476 6.84822 17.2019C7.10252 17.4562 7.24881 17.8089 7.24881 18.1685C7.24881 18.528 7.10252 18.8808 6.84822 19.1351C6.59393 19.3894 6.24119 19.5356 5.88162 19.5356Z" fill="#122B48"/>
<path d="M20.8819 28.1972C20.6499 28.1972 20.4148 28.1381 20.1995 28.0138L10.5267 22.4293C9.87274 22.0518 9.64866 21.2156 10.0263 20.5617C10.4039 19.9078 11.2399 19.6838 11.8939 20.0613L21.5667 25.6459C22.2206 26.0233 22.4447 26.8595 22.0671 27.5134C21.8139 27.9519 21.3542 28.1972 20.8819 28.1972Z" fill="#122B48"/>
<path d="M64.1182 19.5356C63.7573 19.5356 63.4059 19.3894 63.1518 19.1351C62.8975 18.8808 62.751 18.528 62.751 18.1685C62.751 17.8089 62.8973 17.4562 63.1518 17.2019C63.4059 16.9476 63.7574 16.8013 64.1182 16.8013C64.4778 16.8013 64.8305 16.9476 65.0848 17.2019C65.3391 17.4562 65.4854 17.8089 65.4854 18.1685C65.4854 18.528 65.3393 18.8808 65.0848 19.1351C64.8307 19.3894 64.4778 19.5356 64.1182 19.5356Z" fill="#122B48"/>
<path d="M49.1182 28.197C48.6456 28.197 48.1862 27.9518 47.9329 27.5132C47.5553 26.8593 47.7794 26.0231 48.4333 25.6456L58.1124 20.0574C58.7663 19.6799 59.6025 19.9039 59.98 20.5578C60.3576 21.2117 60.1335 22.0479 59.4796 22.4254L49.8005 28.0136C49.5853 28.1379 49.3501 28.197 49.1182 28.197Z" fill="#122B48"/>
<path d="M23.5852 16.5943C23.1127 16.5943 22.6532 16.3492 22.4 15.9105L14.7295 2.62481C14.3519 1.97089 14.576 1.13471 15.2299 0.757234C15.8837 0.37948 16.72 0.603699 17.0975 1.25762L24.768 14.5433C25.1456 15.1972 24.9214 16.0334 24.2676 16.4108C24.0522 16.5353 23.8172 16.5943 23.5852 16.5943Z" fill="#122B48"/>
<path d="M12.168 36.3672H1.36719C0.61209 36.3672 0 35.7551 0 35C0 34.2449 0.61209 33.6328 1.36719 33.6328H12.168C12.9231 33.6328 13.5352 34.2449 13.5352 35C13.5352 35.7551 12.9231 36.3672 12.168 36.3672Z" fill="#122B48"/>
<path d="M15.9122 69.4265C15.6801 69.4265 15.4451 69.3675 15.2298 69.2432C14.5759 68.8657 14.3518 68.0295 14.7294 67.3756L22.3999 54.09C22.7775 53.436 23.6138 53.2122 24.2674 53.5896C24.9214 53.9671 25.1455 54.8034 24.7678 55.4571L17.0974 68.7428C16.8443 69.1814 16.3847 69.4265 15.9122 69.4265Z" fill="#122B48"/>
<path d="M54.0878 69.4261C53.6152 69.4261 53.1558 69.1809 52.9025 68.7423L45.232 55.4567C44.8544 54.8028 45.0785 53.9666 45.7324 53.5891C46.3863 53.2116 47.2225 53.4357 47.6 54.0895L55.2705 67.3751C55.6481 68.0291 55.424 68.8652 54.7701 69.2427C54.5549 69.367 54.3197 69.4261 54.0878 69.4261Z" fill="#122B48"/>
<path d="M68.6328 36.3672H57.832C57.0771 36.3672 56.4648 35.7551 56.4648 35C56.4648 34.2449 57.0771 33.6328 57.832 33.6328H68.6328C69.3878 33.6328 70 34.2449 70 35C70 35.7551 69.3878 36.3672 68.6328 36.3672Z" fill="#122B48"/>
<path d="M46.4146 16.5946C46.1828 16.5946 45.9477 16.5355 45.7324 16.4112C45.0785 16.0338 44.8544 15.1976 45.232 14.5437L52.9025 1.25802C53.2801 0.604233 54.1159 0.380014 54.7701 0.757632C55.424 1.13511 55.6481 1.97128 55.2705 2.62521L47.6 15.9109C47.3469 16.3493 46.8871 16.5946 46.4146 16.5946Z" fill="#122B48"/>
<path d="M35 10.1172C34.2449 10.1172 33.6328 9.5051 33.6328 8.75V1.36719C33.6328 0.61209 34.2449 0 35 0C35.755 0 36.3672 0.61209 36.3672 1.36719V8.75C36.3672 9.5051 35.755 10.1172 35 10.1172Z" fill="#122B48"/>
<path d="M5.87439 53.1835C5.40189 53.1835 4.94238 52.9384 4.68918 52.4998C4.31156 51.8459 4.53564 51.0097 5.18957 50.6322L11.5834 46.9408C12.2371 46.5631 13.0735 46.7873 13.4509 47.4412C13.8286 48.0951 13.6045 48.9313 12.9505 49.3088L6.55676 53.0002C6.34143 53.1245 6.10627 53.1835 5.87439 53.1835Z" fill="#122B48"/>
<path d="M5.87439 53.1835C5.40189 53.1835 4.94238 52.9384 4.68918 52.4998C4.31156 51.8459 4.53564 51.0097 5.18957 50.6322L11.5834 46.9408C12.2371 46.5631 13.0735 46.7873 13.4509 47.4412C13.8286 48.0951 13.6045 48.9313 12.9505 49.3088L6.55676 53.0002C6.34143 53.1245 6.10627 53.1835 5.87439 53.1835Z" fill="#122B48"/>
<path d="M64.1254 53.184C63.8936 53.184 63.6585 53.1249 63.4432 53.0006L57.0496 49.3092C56.3956 48.9317 56.1715 48.0955 56.5492 47.4416C56.9268 46.7878 57.7627 46.5636 58.4167 46.9412L64.8104 50.6326C65.4643 51.0101 65.6884 51.8463 65.3108 52.5002C65.0576 52.9388 64.5979 53.184 64.1254 53.184Z" fill="#122B48"/>
</svg>
