<svg width="74" height="74" viewBox="0 0 74 74" fill="none" xmlns="http://www.w3.org/2000/svg">
<g clip-path="url(#clip0)">
<path d="M65.0399 41.884C70.9185 37.0887 73.9993 31.4687 73.9993 25.4386C73.9993 14.68 65.1816 5.92725 54.3434 5.92725C48.5753 5.92725 43.6554 7.49263 39.8476 11.886C38.0134 11.1583 35.7134 10.5522 33.5313 10.5522C24.6853 10.5522 17.4887 17.7488 17.4887 26.5948C17.4887 34.2909 23.588 41.2201 31.4553 42.6568C31.1819 44.5872 31.529 46.4993 32.4105 48.1706C29.1775 49.4894 26.6333 52.3233 25.8415 55.645H22.4781C21.7498 54.2711 20.3052 53.3326 18.645 53.3326H13.7311C11.6364 53.3326 9.884 54.8257 9.48207 56.8034C9.30748 56.8001 9.35127 56.8013 4.33671 56.8013C1.94592 56.8013 0.000854492 58.7463 0.000854492 61.1371V66.0511C0.000854492 68.4419 1.94592 70.3869 4.33671 70.3869C9.35907 70.3869 9.28146 70.3878 9.45634 70.3853C9.80089 72.434 11.586 74.0001 13.7311 74.0001H18.645C20.7895 74.0001 22.5743 72.4347 22.9195 70.3869H58.9685C67.2566 70.3869 73.9994 63.7088 73.9994 55.5005C73.9993 49.431 70.3121 44.199 65.0399 41.884ZM4.33656 66.0511V61.1371H9.39506V66.0511H4.33656ZM18.6449 69.6643H13.7309C13.7309 66.9628 13.7309 60.0974 13.7309 57.6684H18.6449V69.6643ZM58.9683 66.0511H22.9807V59.9809H27.7502C28.9474 59.9809 29.9181 59.0102 29.9181 57.813C29.9181 54.8096 32.6464 52.0594 35.7875 51.7446C37.1564 52.5686 38.7579 53.0435 40.4687 53.0435C41.6659 53.0435 42.6366 52.0729 42.6366 50.8756C42.6366 49.6783 41.6659 48.7077 40.4687 48.7077C37.8388 48.7077 35.6992 46.5681 35.6992 43.9382C35.6992 41.3084 37.8388 39.1688 40.4687 39.1688C41.6659 39.1688 42.6366 38.1981 42.6366 37.0009C42.6366 35.8036 41.6659 34.8329 40.4687 34.8329C37.4736 34.8329 34.8124 36.287 33.1519 38.5258C26.9966 37.926 21.8245 32.6085 21.8245 26.5948C21.8245 20.1396 27.0762 14.888 33.5313 14.888C34.7159 14.888 36.0584 15.1719 37.2762 15.5682C36.4873 16.9455 35.7351 18.5113 34.9958 20.3039C34.5394 21.4109 35.0665 22.6782 36.1734 23.1347C37.2807 23.5914 38.5477 23.0638 39.0042 21.9572C42.5651 13.3233 46.5789 10.2632 54.3434 10.2632C62.7908 10.2632 69.6634 17.071 69.6634 25.4387C69.6634 32.3332 64.2358 37.4482 59.4382 40.6222C57.0942 40.5512 54.8485 41.0073 52.7585 41.9679C51.6706 42.4678 51.194 43.7551 51.6939 44.843C52.1937 45.9307 53.4803 46.4075 54.5691 45.9077C61.473 42.7349 69.6634 47.7546 69.6634 55.5008C69.6634 61.3182 64.8656 66.0511 58.9683 66.0511Z" fill="#122B48" stroke="white" stroke-width="0.99998"/>
<path d="M15.0317 13.7317C18.7773 13.7317 21.8245 10.6845 21.8245 6.93886C21.8245 5.13269 21.1292 3.41295 19.8669 2.09601C17.1883 -0.698307 12.8756 -0.69903 10.1965 2.09601C8.93416 3.4128 8.23883 5.13269 8.23883 6.93886C8.23883 10.6845 11.2861 13.7317 15.0317 13.7317ZM15.0317 4.33735C16.3405 4.33735 17.4886 5.55298 17.4886 6.93886C17.4886 8.29367 16.3865 9.39585 15.0317 9.39585C13.6769 9.39585 12.5747 8.29367 12.5747 6.93886C12.5747 5.55298 13.7228 4.33735 15.0317 4.33735Z" fill="#122B48" stroke="white" stroke-width="0.99998"/>
</g>
<defs>
<clipPath id="clip0">
<rect width="74" height="74" fill="white"/>
</clipPath>
</defs>
</svg>
