<svg width="75" height="75" viewBox="0 0 75 75" fill="none" xmlns="http://www.w3.org/2000/svg">
<path d="M56.25 0H18.75C15.3 0.0040625 12.5041 2.8 12.5 6.25V63.75C12.5037 66.7189 14.592 69.277 17.5 69.875V75H25V70H50V75H57.5V69.875C60.408 69.277 62.4962 66.7189 62.5 63.75V6.25C62.4959 2.8 59.7 0.0040625 56.25 0ZM22.5 72.5H20V70H22.5V72.5ZM55 72.5H52.5V70H55V72.5ZM60 63.75C60 65.8211 58.3211 67.5 56.25 67.5H18.75C16.6789 67.5 15 65.8211 15 63.75V6.25C15 4.17891 16.6789 2.5 18.75 2.5H56.25C58.3211 2.5 60 4.17891 60 6.25V63.75Z" fill="#122B48"/>
<path d="M37.5 25C26.4544 25 17.5 33.9544 17.5 45C17.5131 56.0403 26.4597 64.9869 37.5 65C48.5456 65 57.5 56.0456 57.5 45C57.5 33.9544 48.5456 25 37.5 25ZM37.5 62.5C27.835 62.5 20 54.665 20 45C20.0103 35.3394 27.8394 27.5103 37.5 27.5C47.165 27.5 55 35.335 55 45C55 54.665 47.165 62.5 37.5 62.5Z" fill="#122B48"/>
<path d="M37.5 30C29.2158 30 22.5 36.7158 22.5 45C22.5089 53.2806 29.2194 59.9911 37.5 60C45.7842 60 52.5 53.2842 52.5 45C52.5 36.7158 45.7842 30 37.5 30ZM37.5 57.5C30.5964 57.5 25 51.9036 25 45C25.0077 38.0995 30.5995 32.5075 37.5 32.5C44.4036 32.5 50 38.0964 50 45C50 51.9036 44.4036 57.5 37.5 57.5Z" fill="#122B48"/>
<path d="M37.5 5C32.6675 5 28.75 8.9175 28.75 13.75C28.7555 18.5802 32.6698 22.4945 37.5 22.5C42.3325 22.5 46.25 18.5825 46.25 13.75C46.25 8.9175 42.3325 5 37.5 5ZM37.5 20C34.0483 20 31.25 17.2017 31.25 13.75C31.2541 10.3 34.05 7.50406 37.5 7.5C40.9517 7.5 43.75 10.2983 43.75 13.75C43.75 17.2017 40.9517 20 37.5 20Z" fill="#122B48"/>
<path d="M37.5 10C35.4289 10 33.75 11.6789 33.75 13.75C33.75 15.8211 35.4289 17.5 37.5 17.5C39.5711 17.5 41.25 15.8211 41.25 13.75C41.25 11.6789 39.5711 10 37.5 10ZM37.5 15C36.8097 15 36.25 14.4403 36.25 13.75C36.25 13.0597 36.8097 12.5 37.5 12.5C38.1903 12.5 38.75 13.0597 38.75 13.75C38.75 14.4403 38.1903 15 37.5 15Z" fill="#122B48"/>
<path d="M20 5H17.5V7.5H20V5Z" fill="#122B48"/>
<path d="M57.5 5H55V7.5H57.5V5Z" fill="#122B48"/>
<path d="M20 62.5H17.5V65H20V62.5Z" fill="#122B48"/>
<path d="M57.5 62.5H55V65H57.5V62.5Z" fill="#122B48"/>
<path d="M37.5 38.75C34.0483 38.75 31.25 41.5483 31.25 45C31.2541 48.45 34.05 51.2459 37.5 51.25C40.9517 51.25 43.75 48.4517 43.75 45C43.75 41.5483 40.9517 38.75 37.5 38.75ZM37.5 48.75C35.4289 48.75 33.75 47.0711 33.75 45C33.75 42.9289 35.4289 41.25 37.5 41.25C39.5711 41.25 41.25 42.9289 41.25 45C41.25 47.0711 39.5711 48.75 37.5 48.75Z" fill="#122B48"/>
<path d="M7.5 43.75H2.5C1.80969 43.75 1.25 44.3097 1.25 45C1.25 45.6903 1.80969 46.25 2.5 46.25H7.5C8.19031 46.25 8.75 45.6903 8.75 45C8.75 44.3097 8.19031 43.75 7.5 43.75Z" fill="#122B48"/>
<path d="M8.38375 35.3665L4.63376 31.6165C4.13719 31.1369 3.34579 31.1507 2.86626 31.6472C2.39844 32.1316 2.39844 32.8996 2.86626 33.384L6.61626 37.134C7.11282 37.6135 7.90422 37.5997 8.38375 37.1032C8.85157 36.6188 8.85157 35.8508 8.38375 35.3665Z" fill="#122B48"/>
<path d="M8.35312 52.8661C7.86874 52.3981 7.10062 52.3981 6.61625 52.8661L2.86624 56.6161C2.36968 57.0958 2.35593 57.8871 2.83562 58.3836C3.31531 58.8802 4.10656 58.8939 4.60312 58.4142C4.61359 58.4042 4.62374 58.3939 4.63374 58.3836L8.38374 54.6336C8.86343 54.1371 8.84968 53.3458 8.35312 52.8661Z" fill="#122B48"/>
<path d="M72.5 43.75H67.5C66.8097 43.75 66.25 44.3097 66.25 45C66.25 45.6903 66.8097 46.25 67.5 46.25H72.5C73.1903 46.25 73.75 45.6903 73.75 45C73.75 44.3097 73.1903 43.75 72.5 43.75Z" fill="#122B48"/>
<path d="M72.1031 31.616C71.6188 31.1482 70.8508 31.1482 70.3663 31.616L66.6163 35.366C66.1281 35.8543 66.1283 36.6457 66.6166 37.1338C66.8509 37.368 67.1688 37.4997 67.5 37.4997C67.8316 37.4997 68.1494 37.3679 68.3838 37.1335L72.1338 33.3835C72.6134 32.8869 72.5997 32.0957 72.1031 31.616Z" fill="#122B48"/>
<path d="M72.1338 56.6161L68.3838 52.8661C67.8872 52.3864 67.0959 52.4002 66.6163 52.8967C66.1483 53.3811 66.1483 54.1492 66.6163 54.6336L70.3663 58.3836C70.8628 58.8633 71.6541 58.8495 72.1338 58.353C72.6017 57.8686 72.6017 57.1005 72.1338 56.6161Z" fill="#122B48"/>
</svg>
