<svg width="74" height="74" viewBox="0 0 74 74" fill="none" xmlns="http://www.w3.org/2000/svg">
<path d="M38.084 8.79111V1.08398C38.084 0.485336 37.5988 0 37 0C36.4012 0 35.916 0.485336 35.916 1.08398V8.7888C27.5988 9.05084 19.8177 12.4115 13.9065 18.323C7.7463 24.4832 4.35372 32.6735 4.35372 41.3851C4.35372 50.0967 7.7463 58.2871 13.9065 64.4473C20.0666 70.6074 28.2569 74 36.9686 74C45.6804 74 53.8707 70.6074 60.0308 64.4473C66.191 58.2871 69.5836 50.0968 69.5836 41.3851C69.5836 32.6733 66.191 24.483 60.0308 18.323C54.1345 12.4264 46.3775 9.06804 38.084 8.79111ZM62.0587 24.1575C60.5733 23.0487 58.9464 22.038 57.2074 21.1461C56.3156 19.4072 55.305 17.7804 54.1963 16.295C57.272 18.4136 59.9403 21.0819 62.0587 24.1575ZM65.2601 52.6367C63.5362 54.7318 61.3151 56.6453 58.7316 58.2688C59.8458 55.4701 60.6709 52.481 61.1948 49.3402C63.4252 48.6839 65.3212 47.9474 66.8678 47.14C66.5026 49.0403 65.9616 50.8788 65.2601 52.6367ZM55.5921 60.0085C52.5127 61.5111 49.1419 62.6156 45.5447 63.2983C46.3739 59.9141 47.0087 55.9957 47.4019 51.8176C48.5257 51.7117 49.6456 51.5874 50.7428 51.4455C52.0879 51.2713 51.871 49.1129 50.4644 49.2954C49.518 49.4178 48.5538 49.5274 47.585 49.6228C47.7802 46.9365 47.8789 44.1718 47.8789 41.3851C47.8789 38.5984 47.78 35.8335 47.585 33.1472C51.8885 33.5695 55.8882 34.2525 59.2614 35.1415C59.5402 37.1934 59.6813 39.2902 59.6813 41.3851C59.6813 43.4801 59.5401 45.5768 59.2614 47.6285C58.2506 47.8949 57.1738 48.1454 56.051 48.3749C54.722 48.6468 55.0959 50.7825 56.4854 50.4989C57.3101 50.3303 58.1107 50.1502 58.882 49.9611C58.1993 53.5582 57.0946 56.9291 55.5921 60.0085ZM48.2198 69.6765C46.462 70.378 44.6239 70.919 42.7237 71.284C43.5309 69.7373 44.2675 67.8414 44.9238 65.6111C48.0646 65.0872 51.0538 64.2621 53.8524 63.1479C52.2288 65.7318 50.3154 67.9528 48.2198 69.6765ZM25.7175 69.6765C23.6222 67.953 21.7087 65.7315 20.0851 63.148C22.8836 64.2621 25.8727 65.0872 29.0135 65.6111C29.6698 67.8414 30.4062 69.7373 31.2137 71.284C29.3135 70.919 27.4753 70.378 25.7175 69.6765ZM18.3452 60.0085C16.8427 56.929 15.738 53.5581 15.0554 49.9611C18.4397 50.7903 22.3578 51.4251 26.5355 51.8184C26.9288 55.9962 27.5636 59.9143 28.3927 63.2985C24.7955 62.6156 21.4246 61.5111 18.3452 60.0085ZM8.67709 52.6361C7.97553 50.8783 7.43455 49.0402 7.06961 47.1399C8.61624 47.9472 10.5122 48.6838 12.7426 49.3401C13.2665 52.4809 14.0917 55.4701 15.2059 58.2686C12.6221 56.6451 10.4006 54.7314 8.67709 52.6361ZM8.67723 30.1336C10.4009 28.0385 12.6224 26.1249 15.2059 24.5014C14.0917 27.3001 13.2665 30.2893 12.7426 33.4299C10.5122 34.0864 8.61624 34.8228 7.06961 35.6301C7.4347 33.7298 7.97568 31.8915 8.67723 30.1336ZM18.3452 22.7616C21.4246 21.2591 24.7955 20.1546 28.3926 19.472C27.5633 22.8565 26.9286 26.775 26.5354 30.9534C25.151 31.0838 23.7826 31.2401 22.4579 31.4228C21.1141 31.608 21.3487 33.7642 22.754 33.5704C23.925 33.409 25.1307 33.2673 26.3522 33.1474C26.1571 35.8336 26.0584 38.5985 26.0584 41.3852C26.0584 44.1719 26.1573 46.937 26.3522 49.6232C22.049 49.2009 18.0492 48.518 14.6759 47.6288C14.3971 45.5762 14.256 43.4793 14.256 41.3852C14.256 39.2913 14.3972 37.1944 14.6759 35.1418C15.4706 34.9325 16.3109 34.732 17.1828 34.5437C18.5087 34.2571 18.1112 32.1254 16.7249 32.4246C16.1546 32.5479 15.5971 32.6763 15.0554 32.809C15.7382 29.2119 16.8427 25.8412 18.3452 22.7616ZM25.7173 13.0937C27.4751 12.3921 29.3134 11.8511 31.2137 11.486C30.4063 13.0328 29.6698 14.9286 29.0135 17.1589C25.8727 17.6828 22.8836 18.5079 20.0851 19.622C21.7086 17.0386 23.6222 14.8173 25.7173 13.0937ZM36.9686 10.9381C37.983 10.9381 38.9856 10.9891 39.9746 11.0864C40.906 12.4709 41.7833 14.4274 42.5522 16.8259C38.8668 16.402 35.0705 16.402 31.3851 16.8259C32.154 14.4275 33.0315 12.471 33.9628 11.0864C34.9519 10.9891 35.9545 10.9381 36.9686 10.9381ZM48.22 13.0937C50.3152 14.8173 52.2288 17.0388 53.8524 19.6223C51.0538 18.5082 48.0646 17.6831 44.9238 17.159C44.2675 14.9288 43.5311 13.0328 42.7237 11.4862C44.624 11.8511 46.4622 12.3921 48.22 13.0937ZM55.5916 22.7614C56.4808 24.5849 57.2416 26.5381 57.8512 28.576C58.2617 29.9483 58.6058 31.3665 58.8805 32.8087C55.4967 31.9797 51.5789 31.3452 47.4019 30.9519C47.0087 26.7741 46.3739 22.8559 45.5447 19.4718C49.1417 20.1546 52.5123 21.259 55.5916 22.7614ZM67.4156 41.3851C67.4156 42.3994 67.3646 43.4019 67.2673 44.391C65.8829 45.3223 63.9265 46.1996 61.5283 46.9685C61.7409 45.1257 61.8493 43.2546 61.8493 41.3851C61.8493 39.5157 61.7409 37.6446 61.5283 35.8017C63.9266 36.5706 65.8829 37.4479 67.2673 38.3791C67.3647 39.3683 67.4156 40.3708 67.4156 41.3851ZM43.2121 19.0924C44.1013 22.4655 44.7842 26.4653 45.2066 30.769C42.5205 30.5739 39.7556 30.475 36.9686 30.475C34.1818 30.475 31.4169 30.5739 28.7307 30.769C29.1531 26.4653 29.8359 22.4656 30.7252 19.0924C34.8296 18.535 39.1077 18.535 43.2121 19.0924ZM28.5415 49.8123C28.333 47.0696 28.2265 44.24 28.2265 41.3851C28.2265 38.5303 28.333 35.7005 28.5415 32.9579C31.2839 32.7493 34.1137 32.6428 36.9686 32.6428C39.8239 32.6428 42.6535 32.7493 45.396 32.9579C45.6044 35.7005 45.7109 38.5302 45.7109 41.3851C45.7109 44.24 45.6044 47.0696 45.396 49.8123C42.6534 50.0207 39.8236 50.1272 36.9686 50.1272C34.1139 50.1272 31.2842 50.0207 28.5415 49.8123ZM6.52169 41.3851C6.52169 40.3708 6.57271 39.3683 6.66998 38.3793C8.05444 37.448 10.0108 36.5706 12.4092 35.8018C12.1966 37.6453 12.0882 39.5164 12.0882 41.3852C12.0882 43.2542 12.1966 45.1253 12.4092 46.9686C10.0108 46.1997 8.05444 45.3224 6.66998 44.3912C6.57271 43.4019 6.52169 42.3994 6.52169 41.3851ZM30.7252 63.6779C29.836 60.3047 29.1531 56.305 28.7307 52.0013C31.4171 52.1966 34.1821 52.2953 36.9686 52.2953C39.7554 52.2953 42.5202 52.1966 45.2066 52.0013C44.7842 56.305 44.1014 60.3047 43.2121 63.6779C39.1077 64.2352 34.8296 64.2352 30.7252 63.6779ZM61.1945 33.4299C60.8822 31.5613 60.457 29.7227 59.9282 27.9547C59.5751 26.7746 59.1741 25.6202 58.7288 24.4998C61.3134 26.1236 63.5355 28.0378 65.2599 30.1335C65.9615 31.8914 66.5026 33.7298 66.8677 35.6303C65.3211 34.8228 63.4249 34.0863 61.1945 33.4299ZM19.7412 16.295C18.6325 17.7804 17.6217 19.4072 16.7299 21.1462C14.9909 22.0381 13.3639 23.0488 11.8786 24.1577C13.997 21.0819 16.6655 18.4136 19.7412 16.295ZM11.8786 58.6126C13.3639 59.7213 14.9908 60.732 16.7299 61.6239C17.6218 63.3629 18.6325 64.9899 19.7414 66.4753C16.6656 64.3567 13.9971 61.6884 11.8786 58.6126ZM33.9628 71.6837C33.0316 70.2993 32.154 68.3429 31.3853 65.9447C33.2285 66.1573 35.0996 66.2657 36.9686 66.2657C38.8377 66.2657 40.7088 66.1573 42.552 65.9447C41.7831 68.343 40.9057 70.2994 39.9746 71.6837C38.9854 71.7812 37.983 71.832 36.9686 71.832C35.9545 71.832 34.952 71.781 33.9628 71.6837ZM54.1962 66.4751C55.3049 64.9899 56.3156 63.3629 57.2074 61.6239C58.9464 60.732 60.5733 59.7213 62.0587 58.6126C59.9403 61.6883 57.272 64.3566 54.1962 66.4751Z" fill="#122B48"/>
<path d="M72.916 18.307H71.3098V16.7007C71.3098 16.102 70.8246 15.6167 70.2259 15.6167C69.6271 15.6167 69.1419 16.102 69.1419 16.7007V18.307H67.5356C66.9368 18.307 66.4516 18.7923 66.4516 19.391C66.4516 19.9896 66.9368 20.475 67.5356 20.475H69.1419V22.0813C69.1419 22.6799 69.6271 23.1653 70.2259 23.1653C70.8246 23.1653 71.3098 22.6799 71.3098 22.0813V20.475H72.916C73.5148 20.475 74 19.9896 74 19.391C74 18.7923 73.5148 18.307 72.916 18.307Z" fill="#122B48"/>
<path d="M8.74733 65.349H7.14101V63.7427C7.14101 63.144 6.65582 62.6587 6.05703 62.6587C5.45823 62.6587 4.97304 63.144 4.97304 63.7427V65.349H3.36687C2.76807 65.349 2.28288 65.8343 2.28288 66.433C2.28288 67.0316 2.76807 67.517 3.36687 67.517H4.97304V69.1231C4.97304 69.7218 5.45823 70.2071 6.05703 70.2071C6.65582 70.2071 7.14101 69.7218 7.14101 69.1231V67.517H8.74733C9.34612 67.517 9.83132 67.0316 9.83132 66.433C9.83132 65.8343 9.34612 65.349 8.74733 65.349Z" fill="#122B48"/>
<path d="M16.3739 4.85827H17.9803V6.46445C17.9803 7.0631 18.4655 7.54843 19.0643 7.54843C19.663 7.54843 20.1482 7.0631 20.1482 6.46445V4.85827H21.7544C22.3532 4.85827 22.8384 4.37294 22.8384 3.77429C22.8384 3.17564 22.3532 2.6903 21.7544 2.6903H20.1482V1.08398C20.1482 0.485336 19.663 0 19.0643 0C18.4655 0 17.9803 0.485336 17.9803 1.08398V2.6903H16.3739C15.7752 2.6903 15.29 3.17564 15.29 3.77429C15.29 4.37294 15.7752 4.85827 16.3739 4.85827Z" fill="#122B48"/>
<path d="M67.8577 69.1418H66.2515V67.5356C66.2515 66.937 65.7663 66.4517 65.1676 66.4517C64.5688 66.4517 64.0836 66.937 64.0836 67.5356V69.1418H62.4774C61.8786 69.1418 61.3934 69.6272 61.3934 70.2258C61.3934 70.8244 61.8786 71.3098 62.4774 71.3098H64.0836V72.9161C64.0836 73.5148 64.5688 74.0001 65.1676 74.0001C65.7663 74.0001 66.2515 73.5148 66.2515 72.9161V71.3098H67.8577C68.4565 71.3098 68.9417 70.8244 68.9417 70.2258C68.9417 69.6272 68.4565 69.1418 67.8577 69.1418Z" fill="#122B48"/>
<path d="M2.69016 18.5325C2.69016 19.1311 3.17535 19.6164 3.77414 19.6164C4.37294 19.6164 4.85813 19.1311 4.85813 18.5325V16.9261H6.46445C7.06324 16.9261 7.54843 16.4408 7.54843 15.8422C7.54843 15.2435 7.06324 14.7582 6.46445 14.7582H4.85813V13.1519C4.85813 12.5532 4.37294 12.0679 3.77414 12.0679C3.17535 12.0679 2.69016 12.5532 2.69016 13.1519V14.7582H1.08398C0.485191 14.7582 0 15.2435 0 15.8422C0 16.4408 0.485191 16.9261 1.08398 16.9261H2.69016V18.5325Z" fill="#122B48"/>
</svg>
