<svg width="74" height="74" viewBox="0 0 74 74" fill="none" xmlns="http://www.w3.org/2000/svg">
<path d="M73.2484 29.5415C72.7614 27.1652 72.0358 24.8282 71.092 22.595C70.1641 20.4023 69.0166 18.2877 67.6811 16.3104C66.3572 14.3505 64.8366 12.509 63.1629 10.8339C61.4878 9.1601 59.6465 7.63963 57.6866 6.31558C55.7094 4.98011 53.5948 3.83239 51.4024 2.9045C49.1695 1.96071 46.8325 1.23516 44.4562 0.747949C39.5812 -0.249316 34.4185 -0.249316 29.5435 0.747949C27.1674 1.23502 24.8303 1.96071 22.5972 2.9045C20.4046 3.83254 18.2901 4.98011 16.3131 6.31558C14.3534 7.63963 12.5106 9.1601 10.8368 10.8339C9.16314 12.509 7.64267 14.3505 6.31876 16.3104C4.98329 18.2877 3.83571 20.4022 2.90782 22.595C1.96259 24.828 1.23834 27.1652 0.751418 29.5415C0.25293 31.9784 0 34.4876 0 36.9983C0 39.5088 0.25293 42.0181 0.751562 44.4549C1.23849 46.8312 1.96273 49.1682 2.90797 51.4014C3.83586 53.5941 4.98329 55.7086 6.31891 57.6859C7.64281 59.6459 9.16328 61.4872 10.837 63.1625C12.5106 64.8361 14.3534 66.3568 16.3134 67.6807C18.2906 69.0163 20.4051 70.1638 22.5975 71.0917C24.8305 72.037 27.1675 72.7611 29.5438 73.2483C31.9804 73.7469 34.4896 73.9999 37.0001 73.9999H37.003C40.784 73.9999 44.5145 73.4304 48.0916 72.3087C51.5546 71.2218 54.8339 69.6304 57.8374 67.5779C58.1568 67.3597 58.3721 67.0316 58.4428 66.6515C58.5151 66.2728 58.4341 65.8883 58.216 65.5689C57.9472 65.1743 57.5006 64.9388 57.0222 64.9388C56.7301 64.9388 56.4497 65.0255 56.2083 65.1902C50.5368 69.0625 43.8941 71.1092 37 71.1092C27.8915 71.1092 19.3253 67.5608 12.8806 61.1188C6.43887 54.6739 2.89062 46.1071 2.89062 36.9983C2.89062 27.8895 6.43887 19.3227 12.8806 12.8776C19.3253 6.43554 27.8915 2.88716 37 2.88716C46.1084 2.88716 54.6747 6.43554 61.1194 12.8776C67.5611 19.3227 71.1094 27.8895 71.1094 36.9983C71.1094 43.9996 69.0036 50.7266 65.0217 56.453C64.8006 56.7697 64.7168 57.154 64.7861 57.5343C64.8541 57.913 65.0664 58.2439 65.383 58.4651C65.6259 58.6342 65.912 58.7238 66.2069 58.7238C66.6808 58.7238 67.1246 58.4925 67.3949 58.1037C69.5036 55.0713 71.1397 51.7555 72.2584 48.2461C73.4146 44.6211 74 40.8357 74 36.9981C74 34.4876 73.7471 31.9784 73.2484 29.5415Z" fill="#122B48"/>
<path d="M37 55.0657C46.9618 55.0657 55.0664 46.9608 55.0664 36.9984C55.0664 27.036 46.9618 18.9312 37 18.9312C27.0382 18.9312 18.9336 27.036 18.9336 36.9984C18.9336 46.9608 27.0382 55.0657 37 55.0657ZM37 21.8219C45.3679 21.8219 52.1758 28.6301 52.1758 36.9984C52.1758 45.3668 45.3679 52.1749 37 52.1749C28.6321 52.1749 21.8242 45.3668 21.8242 36.9984C21.8242 28.6301 28.6321 21.8219 37 21.8219Z" fill="#122B48"/>
<path d="M37 38.4439C37.7982 38.4439 38.4453 37.7968 38.4453 36.9985C38.4453 36.2003 37.7982 35.5532 37 35.5532C36.2018 35.5532 35.5547 36.2003 35.5547 36.9985C35.5547 37.7968 36.2018 38.4439 37 38.4439Z" fill="#122B48"/>
<path d="M31.7973 28.9321C32.0322 28.9321 32.2704 28.8748 32.4909 28.7539C33.8638 28.0012 35.423 27.6033 37 27.6033C38.4622 27.6033 39.8626 27.9295 41.1621 28.5728C41.8772 28.9271 42.7444 28.634 43.0985 27.9188C43.4526 27.2034 43.1599 26.3364 42.4445 25.9821C40.7429 25.1396 38.9111 24.7124 37 24.7124C34.9385 24.7124 32.8988 25.2334 31.1012 26.219C30.4013 26.6027 30.145 27.4813 30.5287 28.1813C30.7916 28.6609 31.2867 28.9321 31.7973 28.9321Z" fill="#122B48"/>
<path d="M42.0376 46.7077C42.3189 47.1085 42.7668 47.3228 43.2218 47.3228C43.5085 47.3228 43.7983 47.2377 44.0508 47.0604C47.3285 44.7596 49.2852 40.9982 49.2852 36.9985C49.2852 36.2003 48.6379 35.5532 47.8398 35.5532C47.0417 35.5532 46.3945 36.2003 46.3945 36.9985C46.3945 40.0573 44.8976 42.9341 42.3903 44.6943C41.7369 45.1528 41.5792 46.0543 42.0376 46.7077Z" fill="#122B48"/>
<path d="M30.7341 47.5678C30.9657 47.7053 31.2198 47.7707 31.4708 47.7707C31.9641 47.7707 32.4447 47.5181 32.7148 47.0633C33.1224 46.3769 32.8966 45.49 32.2102 45.0825C29.5727 43.5157 27.8613 40.7613 27.6321 37.7141C27.5722 36.918 26.8763 36.3201 26.0824 36.3813C25.2865 36.4411 24.6897 37.135 24.7495 37.9309C25.0494 41.9174 27.2866 45.52 30.7341 47.5678Z" fill="#122B48"/>
<path d="M51.4946 54.2717C49.4726 55.967 47.1903 57.2846 44.7112 58.1883C43.9614 58.4617 43.5749 59.2913 43.8482 60.0413C44.0619 60.6279 44.6161 60.992 45.2062 60.992C45.3705 60.992 45.5376 60.9637 45.7011 60.9043C48.497 59.885 51.071 58.3988 53.3514 56.4871C53.9631 55.9742 54.0434 55.0626 53.5305 54.4508C53.0178 53.8392 52.1061 53.7591 51.4946 54.2717Z" fill="#122B48"/>
<path d="M28.2988 13.0917C25.5029 14.111 22.9289 15.5972 20.6485 17.5089C20.0368 18.0218 19.9565 18.9334 20.4694 19.5452C20.7553 19.8861 21.1649 20.062 21.5777 20.062C21.9053 20.062 22.2349 19.9512 22.5054 19.7243C24.5274 18.0291 26.8097 16.7114 29.2889 15.8078C30.0387 15.5343 30.4252 14.7047 30.1518 13.9547C29.8784 13.2048 29.0494 12.8183 28.2988 13.0917Z" fill="#122B48"/>
<path d="M57.0354 57.0327C53.5204 60.5408 49.1275 63.077 44.3321 64.3672C43.5613 64.5746 43.1044 65.3677 43.3118 66.1385C43.4853 66.7836 44.0689 67.2087 44.7066 67.2087C44.8307 67.2087 44.9572 67.1925 45.0829 67.1587C50.3658 65.7374 55.2049 62.9434 59.077 59.0788C59.642 58.5149 59.643 57.5998 59.0792 57.0347C58.5154 56.4696 57.6001 56.4689 57.0354 57.0327Z" fill="#122B48"/>
<path d="M30.688 7.85783C30.4808 7.08705 29.6876 6.63019 28.9169 6.83759C23.634 8.25891 18.795 11.0528 14.9229 14.9175C14.3579 15.4814 14.3569 16.3965 14.9207 16.9616C15.203 17.2444 15.5734 17.3859 15.9437 17.3859C16.3131 17.3859 16.6825 17.2451 16.9645 16.9636C20.4795 13.4555 24.8724 10.9193 29.6678 9.62907C30.4387 9.42166 30.8956 8.62876 30.688 7.85783Z" fill="#122B48"/>
<path d="M62.0312 63.6958C62.8294 63.6958 63.4765 63.0487 63.4765 62.2505C63.4765 61.4523 62.8294 60.8052 62.0312 60.8052C61.233 60.8052 60.5859 61.4523 60.5859 62.2505C60.5859 63.0487 61.233 63.6958 62.0312 63.6958Z" fill="#122B48"/>
</svg>
